<?xml version="1.0" encoding="UTF-8"?>
<svg id="Layer_1" data-name="Layer 1" xmlns="http://www.w3.org/2000/svg" viewBox="0 0 229 66">
  <defs>
    <style>
      .cls-1 {
        stroke-width: 2.83px;
      }

      .cls-1, .cls-2, .cls-3, .cls-4 {
        fill: #fff;
        stroke: #fff;
        stroke-miterlimit: 10;
      }

      .cls-2 {
        stroke-width: 3.97px;
      }

      .cls-3 {
        stroke-width: 3.12px;
      }

      .cls-4 {
        stroke-width: 3.69px;
      }
    </style>
  </defs>
  <path class="cls-2" d="M150.08,44.71c.01,1.15-.87,1.84-1.97,1.78-.48-.1-1.01-.53-1.37-.9-.37-.44-.56-.98-.67-1.52-.24-.99-.49-2.03-.79-3-.59-1.84-1.81-3.41-2.9-4.99-1.2-1.5-2.18-3.19-3.58-4.51-1-.75-.64,1.09-.61,1.58.11,1.22.1,2.34.27,3.53.07,1.13.06,2.22.23,3.34.06.94.02,1.82.12,2.75.06.8.16,1.53.15,2.35,0,.56-.13,1.21-.81,1.23-.35.1-.73.38-1.1.17-.6-.35-1.26-.68-1.6-1.31-.14-.24-.16-.53-.17-.8-.02-.61-.16-1.24-.15-1.87.01-2.29-.2-4.53-.45-6.8-.04-.71-.04-1.37-.06-2.05-.05-.73-.1-1.44-.06-2.17-.15-1.39-.11-2.93-.12-4.2,0-1.18,0-2.33,0-3.51.06-.93-.23-2.19.48-2.97.23-.23.58-.18.89-.14.44.02.83.27,1.12.58.78.75.63,2.72.71,3.6.07.45,0,2.43.82,1.43.63-.76,1.18-1.56,1.79-2.34.71-.9,1.5-1.73,2.24-2.6.29-.33.52-.59.82-.89.16-.16.36-.34.58-.37.34-.03.72.12.99.3.2.15.33.41.54.57.47.31.79.61.53,1.2-.17.43-.49.79-.81,1.12-.45.52-.89,1.08-1.38,1.57-.47.51-.99,1.05-1.45,1.57-.48.55-.91,1.21-1.38,1.79-.39.46-.18.93.23,1.27.3.28.58.57.84.87.5.57.96,1.17,1.43,1.76,1.02,1.28,2.1,2.55,3.02,3.9.96,1.46,1.94,2.98,2.38,4.7.42,1.31,1.18,2.58,1.29,3.96v.02Z"/>
  <path class="cls-2" d="M158.66,31.08c.09.3.16.6.14.92-.02.38-.15.75-.2,1.11-.04.26-.05.53-.08.79-.12,1.2-.37,2.38-.46,3.59-.05.49-.12.96-.18,1.46-.04.49-.02.98-.03,1.46,0,1.19,0,2.33,0,3.54.04.69.02,1.75-.85,1.86-.27.03-.57-.06-.79-.24-.14-.11-.26-.25-.42-.33-.18-.11-.41-.13-.61-.21-.52-.18-.71-.64-.74-1.16-.04-.54-.04-1.1-.04-1.64,0-1.03-.02-2.05.06-3.08.08-.76.18-1.54.27-2.33.14-1.4.25-2.84.56-4.21.14-1.03.33-2.05.61-3.1.11-.4.25-.76.44-1.1.14-.24.27-.54.5-.66.24-.13.54-.11.81-.1,1.56.12.62,2.41,1,3.41v.02ZM160.05,23.53c-.02.58-.58.76-1.12.87-.35.09-.72.09-1.05-.07-.58-.21-1.44-.68-.94-1.38.35-.48.87-.99,1.46-1.05.64.06,1.16.52,1.48,1.08.09.16.17.35.17.53v.02Z"/>
  <path class="cls-2" d="M180.71,21.97c.11,1.1-.4,1.45-1.42,1.54-1.09.33-2.22.5-3.35.62-1.48-.01-1.18.72-1.22,1.84,0,.44-.16.85-.19,1.28-.01,1.3-.02,2.51-.08,3.86-.03.67-.14,1.36-.16,2.05-.05,1.17,0,2.17-.07,3.31-.14,1.29-.17,2.74-.18,4.02-.02.8,0,1.61-.06,2.41-.06.63-.17,1.24-.16,1.88.12.97-.38,1.34-1.38,1.36-1.67.08-2.95-1.07-2.57-2.74.16-1.79.27-3.54.29-5.21.04-2.43.11-4.88.24-7.27.07-1.84.21-3.67.16-5.51-.03-.72-.48-.74-1.06-.6-.67.04-1.32.11-1.97.25-.58.1-1.08,0-1.44-.51-.26-.29-.63-.49-.77-.83-.23-.53.13-1.12.6-1.38.92-.47,1.98-.52,2.99-.66,1.16-.09,2.4-.29,3.58-.41.76-.07,1.5-.22,2.25-.34.73-.04,1.47-.1,2.19-.24.74-.07,1.48-.31,2.21-.18.38.11.55.5.82.74.26.24.67.34.73.72h0Z"/>
  <path class="cls-2" d="M196.78,25.95c.02.42-.6,1.13-.98,1.27-.35.16-.73.14-1.1.1-.5-.04-1.02-.03-1.51.02-.36.03-.78.06-1.16.03-.46-.05-.93-.08-1.39.02-.16.03-.31.09-.42.21-.32.34-.34.87-.35,1.31,0,.34-.05.7-.05,1.05.07,1.26.18,2.51.28,3.77.05.46.03,1.1.65,1.07.57.03,1.1-.21,1.65-.34.28-.05.55-.12.82-.21.52-.14,1.09-.27,1.63-.15.71.17,1.72.77,1.32,1.62-.18.39-.57.68-.96.86-.43.24-.87.43-1.34.54-.45.17-.93.3-1.4.39-.44.12-.92.24-1.38.32-.44.07-.54.41-.48.81.03.35.06.71.17,1.05.09.26.17.52.23.78.13.49.38,1.01.71,1.42.53.5,1.35.49,2.02.37.5-.1,1.02-.15,1.53-.14.78,0,1.65.13,2.27.65.3.29.2.83.07,1.2-.14.3-.49.4-.76.54-.27.14-.49.32-.77.42-.69.2-1.39.26-2.07.33-1.54.15-3.24-.01-4.5-.95-.37-.31-.68-.7-.94-1.1-.33-.63-.57-1.27-.78-1.94-.21-.65-.31-1.28-.43-1.94-.11-.58-.21-1.14-.29-1.73-.1-.78-.18-1.42-.21-2.16,0-.39.1-.77.09-1.16-.02-.72-.14-1.41-.09-2.13.02-.21.03-.42.03-.62,0-.86-.19-1.68-.08-2.53.13-1-.15-1.02-1.04-1.21-.31-.07-.6-.11-.87-.26-.57-.3-.95-.87-.31-1.36.38-.35.68-.8,1.21-.93.45-.11.9-.12,1.35-.3.4-.12.82-.31,1.21-.37.41-.05.83.09,1.24.05.68-.03,1.35-.15,2.03-.16.6.02,1.18.09,1.79.04.44-.03.9.07,1.33.07.26,0,.52,0,.76.11.39.18,1.22.8,1.3,1.23v.02Z"/>
  <path class="cls-4" d="M38.36,19.62c.16.73-.25.91-.86.9-1.16-.06-2.28.24-3.41.44-.72.11-1.46.27-2.14.5-.57.18-1.06.51-1.15,1.13-.09.58-.26,1.16-.39,1.73-.07.43-.08.84-.1,1.27-.02.41-.09.82-.16,1.23-.18,1-.36,2-.49,3-.04.4-.22.94.03,1.29.4.43,1.12.1,1.64.09.54-.04,1.07.09,1.6.16.43.05.82.24,1.11.56.4.43.77.99.8,1.6.02.65-.69.99-1.25,1.11-.36.08-.74.09-1.13.1-.53.02-1.07.08-1.59.21-1.39.3-1.49,1.03-1.33,2.29.04.55-.05,1.07-.05,1.61,0,.67.1,1.34.12,2.01.01.48.01.91.12,1.38.52,2.56,1.21,5.65,1.56,7.67.1.76-.47,1.35-.89,1.93-.28.38-.62.52-1.1.51-.42.01-.84.03-1.25-.1-.19-.06-.38-.15-.56-.24-.48-.21-.97-.43-1.19-.92-.15-.31-.18-.68-.21-1.01-.03-.37-.04-.65-.12-1-.3-1.63-1.11-5.13-1.53-7.16-.17-1.28-.27-2.57-.31-3.87-.06-.69.11-1.61-.44-2.12-.43-.38-1.09-.41-1.52-.81-.76-.73-.13-1.84.68-2.21.44-.24.99-.24,1.3-.65.19-.26.25-.59.29-.9.09-.64.14-1.28.14-1.93,0-.45.07-.9.1-1.34.03-.43,0-.87.04-1.31.12-1.11.32-2.22.54-3.32.2-.97.53-1.92.9-2.84.3-.93.72-1.98,1.72-2.3.41-.12.84-.08,1.27-.14,1.11-.19,2.21-.48,3.32-.69.98-.18,2.01-.31,3.01-.37.73-.03,1.48.23,2.02.73.47.46.69,1.11.86,1.74h0Z"/>
  <path class="cls-3" d="M55.3,23.02c.05,1.19.19,2.45.14,3.62-.02.43-.08.86-.11,1.29-.03.43,0,.87-.02,1.3-.02.33-.07.66-.1.99-.09,1.01-.17,2.01-.33,3-.22,1.46-.32,2.94-.55,4.4-.31,1.72-.68,3.42-1,5.14-.1.5-.19,1.01-.3,1.51-.14.6-.26,1.31-.83,1.64-.24.14-.53.23-.81.31-.52.15-.91.18-1.42-.04-1.25-.49-1.83-1.41-1.57-2.75.18-1.09.4-2.17.64-3.26.13-.6.23-1.2.34-1.8.06-.4.22-.83.12-1.22-.12-.44-.65-.46-1.03-.47-.5-.01-1-.08-1.5-.1-.39-.02-.78,0-1.16.02-.4.02-.85.08-1.13.4-.11.12-.19.27-.25.44-.13.37-.22.78-.33,1.17-.25,1.04-.34,2.11-.53,3.17-.1.55-.27,1.09-.37,1.63-.12.57-.13,1.15-.3,1.7-.32,1.04-1.44,1.16-1.93.17-.12-.26-.17-.56-.18-.86-.03-.69.05-1.38.12-2.07.06-.98.17-1.95.27-2.92.06-.76.31-1.49.42-2.24.06-.62-.39-.89-.92-1.08-1.15-.41-2.09-1.27-1.78-2.6.16-.93.65-1.13,1.53-1.04.95.04,2.36.47,2.81-.68.42-1.03.7-2.13,1.18-3.14.65-1.38,1.34-2.73,2.13-4.03.31-.56.59-1.15.94-1.68.53-.83,1.15-1.59,1.75-2.37.75-1.06.97-1.44,2.15-2.13.96-.61,1.42-.25,2.02.6.3.41.69.73,1.04,1.1.37.41.57,1.03.7,1.52.12.45.15.92.18,1.38h0ZM50.95,25.38c-.02-.8-.45-.91-.92-.29-.57.78-1.02,1.63-1.63,2.39-.22.27-.45.54-.62.85-.41.7-.63,1.48-.95,2.22-.19.45-.47.87-.55,1.36-.14.99,1.18,1.01,1.86.97.37-.02.78-.04,1.15-.07.52-.03,1.05-.33,1.36-.76.65-.91.6-2.24.61-2.72.01-.31-.03-1.98.04-2.45.05-.34-.49-.11-.45-.45.04-.34-.37-.31-.38-.66l.46-.38Z"/>
  <path class="cls-4" d="M73.98,21.87c.19.6-.14,1.21-.2,1.81-.13.85-.2,1.7-.3,2.56-.12.87-.12,1.75-.19,2.62-.11.91-.23,1.85-.36,2.77-.07.56-.21,1.13-.21,1.68-.03,1.65.21,3.62,0,5.3-.27,1.31-.54,2.64-1.28,3.77-.48.87-1.09,1.63-1.79,2.33-.44.43-.88.9-1.45,1.16-.49.22-1.03.15-1.54.28-.49.11-.98.26-1.5.24-1.55-.1-3-1.04-3.76-2.38-.46-.78-.62-1.67-.8-2.55-.17-.84-.38-1.68-.44-2.51-.18-2.53-.39-5.96-.5-8.02-.1-1.21-.08-2.46.18-3.66.13-.73.22-1.59.89-2.03.33-.24.73-.32,1.12-.42,1.07-.37,1.84.06,2.04,1.16.1.77-.18,1.53-.16,2.3.03,1.38.09,2.7.25,4.06.09.6.19,1.12.22,1.7.23,2.42.17,4.52.64,6.76.12.82.29,2.29,1.47,1.83.76-.26,1.34-.98,1.77-1.67.43-.67.56-1.49.58-2.27.11-1.98-.22-4.51.01-6.66.21-1.81.29-3.63.42-5.44-.02-.87.09-1.72.21-2.59.11-.96.29-1.99.97-2.73.45-.48,1.22-.74,1.9-.79.79,0,1.49.63,1.78,1.34h0Z"/>
  <path class="cls-4" d="M98.96,25.29c.02.35-.04.7-.09,1.05-.08.49-.15.98-.23,1.48-.16,1.03-.28,2.09-.38,3.13-.04.52-.03,1.04-.07,1.56-.02.27-.06.53-.09.8-.06.46-.07.93-.14,1.38-.14.81-.36,1.63-.57,2.43-.4,1.32-.69,2.7-1.3,3.96-.22.41-.52.79-.79,1.16-.26.34-.52.68-.8,1.01-.61.71-1.22,1.46-1.95,2.03-.33.24-.76.28-1.12.45-.35.17-.66.46-1.07.42-.59-.06-1.16-.36-1.66-.65-.51-.3-1-.64-1.49-.99-1.31-.88-2.44-1.97-3.33-3.29-.17-.23-.32-.52-.56-.68-.46-.28-.69.4-.77.75-.08.3-.15.6-.23.89-.23.71-.45,1.44-.68,2.15-.11.32-.23.63-.32.95-.16.56-.29,1.14-.6,1.65-.18.29-.43.52-.69.74-.25.22-.5.44-.79.58-.95.48-1.92,0-2.37-.93-.23-.44-.24-.95-.14-1.43.42-2.39,1.12-4.69,1.75-7.01.43-1.56.81-3.14,1.16-4.72.14-.65.26-1.24.37-1.87.06-.35.16-.71.32-1.03.27-.53.74-1,1.3-1.22,1.21-.42,2.43.5,3.13,1.41.67.88.81,2,1.2,3.02.36.99.7,1.97,1.12,2.93.45.92,1.05,1.89,1.67,2.66.55.67,1.04,1.11,1.74.3.22-.24.44-.49.62-.77.39-.65.61-1.34.87-2.04.4-1.13.76-2.25.99-3.44.09-.52.17-1.03.21-1.56.02-.33.03-.67.06-1,.08-.68.18-1.38.23-2.07.05-.66.17-1.33.25-1.99.06-.49-.03-.99.05-1.49.14-.72.45-1.41.87-2.01.43-.63,1.12-.69,1.83-.75.25-.03.52-.06.77-.02.46.05.81.39,1.1.72.34.37.62.79.65,1.29h0Z"/>
  <path class="cls-1" d="M113.83,22.67c.38,1.29.9,2.57,1.12,3.9.05.3.08.6.14.89.07.33.17.66.25.99.13.55.18,1.12.22,1.69.03.5.04,1.01.2,1.49.64,2.03,1.49,3.98,2.22,5.98.11.32.22.64.32.96.46,1.55.98,3.08,1.47,4.62.22.81.7,1.79.11,2.54-.14.18-.31.35-.48.52-.28.3-.59.57-1.01.61-.45.04-2.34-.28-2.58-.65-.16-.24-.33-.5-.46-.77-.13-.27-.28-.78-.34-.9-.18-.32-.43-1.97-.57-2.42-.12-.39-.23-.78-.36-1.16-.16-.49-.42-.95-.6-1.44-.12-.31-.17-.66-.36-.94-.23-.35-.61-.27-.95-.18-.88.28-1.59-.55-2.44-.57-.4-.01-.8.11-1.18.21-.47.14-.94.26-1.29.6-.31.32,0,.19.19.08.16-.08.32-.15.47-.23.21-.11.29-.07.3.16-.03,1.17-.16,2.35-.2,3.47-.01.49.03.98.05,1.47.02.5-.03.99,0,1.48,0,.2.03.41.05.61.02.24-.19,2.21-.43,2.38-.3.24-.69.3-1.06.26-.4-.03-.81-.12-1.1-.42-.2-.21-.32-.47-.41-.74-.3-.86-.36-1.76-.52-2.65-.15-.66-.2-1.33-.32-2-.04-.22-.07-.44-.1-.66-.09-.7-.04-1.4-.13-2.1-.03-.21-.15-.47-.09-.64.08-.23.37-.28.57-.4.21-.12-.06-.19-.22-.24-.53-.14-1.07-.39-1.41-.84-.59-.79-.48-2.23.58-2.47.23-.07.65-.14.85-.15,0,0,0,0,0,0,0,0-.01,0-.02,0-.04,0-.11,0-.16-.02-.08-.02-.06-.14-.02-.23.03-.07.06-.15.08-.22.06-.17.1-.36.12-.52.1-.76.12-1.53.2-2.29.23-1.77.66-3.52,1.16-5.24.13-.47.23-.95.35-1.43.24-.88.6-1.73.96-2.57.11-.26.23-.51.33-.77.17-.42.3-.85.5-1.26.2-.42.52-.78.84-1.12.27-.27.54-.6.9-.72.62-.18,1.1.38,1.55.71.4.32.91.49,1.31.81.72.65,1.11,1.58,1.39,2.48h0ZM109.1,25.91c-.06-.19-.05-.22-.1-.37-.02-.08.06.06,0,0-.09-.01-.42.14-.54.14-.08.15-.19-.73-.27-.58-.23.62-.18.6-.41,1.23-.08.28-.73-.87-.81-.57-.09.37-.05,1.12-.2,1.43-.23.76-.78,2.37-.96,2.91-.37,1.12-.11,1.79.15,2.19-.01.09,3.33,1.77,3.33,1.89.02.08-2.81-1.85-2.79-1.77.05.15.12.26.31.32.33-.02.71-.01,1.05-.04l2.31.02c-.82-.31.73-.4.78-.47.18-.26-.51-.08-.57-.45-.15-.42.31-.46.7-.7.5-.3-.37-1.33-.1-1.79.89-1.5-.77-2.89-1.42-3.05-.08-1.07-.11-.62-.2.34-.02-.2-.18-.49-.24-.68Z"/>
</svg>