<?xml version="1.0" encoding="UTF-8"?>
<svg id="Layer_1" data-name="Layer 1" xmlns="http://www.w3.org/2000/svg" viewBox="0 0 127.56 127.56">
  <defs>
    <style>
      .cls-1 {
        fill: #010101;
        font-family: MyriadPro-Regular, 'Myriad Pro';
        font-size: 12px;
      }

      .cls-2 {
        stroke-width: 1.7px;
      }

      .cls-2, .cls-3, .cls-4 {
        fill: #fff;
        stroke: #fff;
        stroke-miterlimit: 10;
      }

      .cls-3 {
        stroke-width: 4.25px;
      }

      .cls-4 {
        stroke-width: 5.1px;
      }

      .cls-5 {
        letter-spacing: -.02em;
      }

      .cls-6 {
        letter-spacing: -.04em;
      }
    </style>
  </defs>
  <text class="cls-1" transform="translate(1.12 -8.11)"><tspan class="cls-6" x="0" y="0">L</tspan><tspan x="5.2" y="0">OGOS BLAN</tspan><tspan class="cls-5" x="65.35" y="0">C</tspan><tspan x="72.06" y="0">O</tspan></text>
  <g>
    <g>
      <g>
        <path class="cls-4" d="M47.67,20.89c.25,1.11-.38,1.39-1.32,1.37-1.77-.09-3.49.36-5.22.68-1.1.17-2.23.41-3.27.77-.87.27-1.62.79-1.76,1.74-.15.89-.4,1.77-.59,2.65-.11.65-.12,1.29-.15,1.94-.04.63-.14,1.26-.25,1.88-.28,1.53-.55,3.06-.74,4.6-.06.62-.34,1.44.04,1.97.62.66,1.72.15,2.51.14.82-.07,1.64.14,2.45.25.65.08,1.26.37,1.7.86.62.67,1.18,1.52,1.22,2.45.03,1-1.06,1.51-1.91,1.7-.55.13-1.14.13-1.72.16-.82.02-1.64.13-2.43.33-2.13.46-2.28,1.58-2.04,3.51.05.84-.08,1.64-.08,2.47,0,1.03.16,2.05.19,3.08.02.73.02,1.39.19,2.11.79,3.91,1.85,8.66,2.38,11.75.16,1.17-.72,2.07-1.37,2.96-.43.58-.96.79-1.68.79-.64.02-1.29.04-1.92-.15-.3-.09-.58-.23-.86-.36-.73-.32-1.48-.66-1.82-1.41-.22-.47-.27-1.04-.32-1.55-.04-.57-.07-1-.18-1.52-.46-2.5-1.7-7.85-2.35-10.97-.26-1.96-.42-3.94-.47-5.92-.09-1.06.16-2.46-.68-3.25-.66-.58-1.67-.62-2.33-1.24-1.16-1.11-.2-2.82,1.05-3.39.67-.36,1.52-.37,1.98-.99.3-.39.38-.9.45-1.38.14-.98.21-1.97.21-2.96.01-.69.11-1.37.16-2.06.04-.66,0-1.33.06-2,.18-1.7.48-3.4.83-5.08.31-1.49.81-2.94,1.38-4.35.47-1.42,1.1-3.03,2.63-3.53.63-.19,1.29-.13,1.94-.22,1.7-.29,3.39-.73,5.08-1.06,1.51-.27,3.08-.47,4.61-.57,1.12-.05,2.27.35,3.09,1.12.72.71,1.06,1.71,1.31,2.66h0Z"/>
        <path class="cls-3" d="M73.62,26.11c.07,1.82.29,3.75.21,5.55-.04.66-.13,1.31-.17,1.97-.04.67,0,1.34-.03,1.99-.03.5-.1,1.01-.16,1.52-.13,1.54-.26,3.08-.51,4.6-.34,2.24-.49,4.5-.85,6.73-.47,2.63-1.03,5.24-1.54,7.87-.15.77-.29,1.55-.45,2.32-.21.92-.4,2.01-1.27,2.52-.37.21-.81.36-1.24.47-.8.24-1.39.28-2.18-.06-1.91-.75-2.81-2.16-2.41-4.21.28-1.67.61-3.33.98-4.99.2-.92.36-1.83.51-2.76.09-.62.33-1.27.19-1.88-.18-.67-1-.71-1.58-.73-.77-.02-1.54-.12-2.3-.16-.6-.03-1.19,0-1.78.03-.61.03-1.3.13-1.73.61-.17.19-.29.42-.39.67-.2.57-.34,1.2-.5,1.79-.39,1.59-.52,3.24-.81,4.85-.16.84-.41,1.66-.57,2.5-.18.87-.19,1.77-.47,2.6-.49,1.59-2.2,1.78-2.96.25-.19-.4-.26-.86-.27-1.31-.05-1.06.07-2.12.18-3.17.09-1.5.27-2.98.42-4.48.09-1.17.47-2.29.64-3.43.1-.96-.6-1.36-1.41-1.66-1.76-.63-3.2-1.95-2.73-3.98.24-1.42,1-1.72,2.34-1.6,1.45.06,3.61.71,4.31-1.05.64-1.58,1.07-3.26,1.8-4.81.99-2.11,2.05-4.18,3.26-6.18.47-.86.9-1.76,1.44-2.58.82-1.26,1.76-2.44,2.68-3.62,1.15-1.62,1.49-2.21,3.29-3.27,1.48-.94,2.17-.38,3.09.91.45.63,1.06,1.12,1.59,1.68.56.62.88,1.57,1.07,2.33.18.69.23,1.41.27,2.12h0ZM66.95,29.71c-.03-1.23-.69-1.39-1.4-.44-.88,1.19-1.57,2.5-2.49,3.66-.34.42-.68.83-.95,1.3-.62,1.08-.97,2.26-1.45,3.4-.29.68-.72,1.34-.84,2.08-.22,1.51,1.8,1.55,2.85,1.49.57-.03,1.2-.06,1.77-.1.8-.05,1.31-.43,1.57-1.21.13-.39.16-.81.2-1.21.07-.74.19-1.47.21-2.21.02-.47.01-.94.02-1.41,0-.73.11-1.44.2-2.16.07-.53.11-1.06.17-1.58.07-.52.13-1.05.12-1.58h0Z"/>
        <path class="cls-4" d="M102.22,24.35c.29.92-.22,1.86-.31,2.78-.2,1.3-.3,2.61-.46,3.92-.18,1.33-.18,2.68-.29,4.01-.17,1.4-.35,2.84-.55,4.25-.11.86-.33,1.72-.32,2.58-.04,2.53.32,5.54,0,8.12-.41,2-.82,4.04-1.95,5.78-.73,1.33-1.67,2.5-2.74,3.57-.67.66-1.35,1.37-2.21,1.78-.75.33-1.58.23-2.36.42-.76.17-1.51.39-2.29.36-2.37-.15-4.59-1.6-5.75-3.65-.7-1.2-.95-2.56-1.22-3.9-.26-1.29-.59-2.58-.67-3.85-.27-3.88-.59-9.13-.77-12.29-.15-1.85-.12-3.76.28-5.61.2-1.11.33-2.43,1.36-3.11.51-.36,1.12-.49,1.72-.64,1.63-.57,2.81.09,3.13,1.78.16,1.18-.27,2.35-.24,3.53.05,2.11.14,4.14.39,6.22.14.92.28,1.72.33,2.61.35,3.71.26,6.92.97,10.36.19,1.25.45,3.51,2.25,2.81,1.17-.4,2.05-1.5,2.71-2.55.65-1.02.87-2.28.89-3.47.16-3.03-.33-6.9.02-10.19.32-2.77.44-5.56.65-8.33-.03-1.33.13-2.64.33-3.96.16-1.48.44-3.05,1.48-4.18.69-.74,1.86-1.14,2.9-1.22,1.22.01,2.28.96,2.73,2.05h0Z"/>
        <path class="cls-4" d="M57.61,74.83c.04.54-.05,1.08-.14,1.61-.13.74-.23,1.5-.35,2.26-.25,1.58-.43,3.19-.58,4.8-.06.79-.05,1.6-.11,2.39-.03.41-.1.82-.15,1.23-.09.7-.11,1.42-.22,2.12-.22,1.24-.55,2.49-.88,3.72-.61,2.03-1.06,4.14-1.98,6.06-.33.63-.79,1.21-1.22,1.78-.4.53-.8,1.04-1.22,1.55-.93,1.08-1.86,2.24-2.99,3.11-.51.37-1.16.42-1.72.69-.53.26-1.01.71-1.63.64-.91-.09-1.77-.55-2.55-.99-.78-.47-1.53-.98-2.28-1.51-2-1.34-3.74-3.01-5.11-5.03-.26-.35-.49-.79-.85-1.04-.71-.44-1.05.61-1.18,1.14-.12.46-.22.92-.36,1.37-.35,1.08-.69,2.2-1.04,3.29-.17.48-.35.97-.49,1.46-.25.85-.45,1.75-.92,2.53-.28.44-.67.79-1.05,1.13-.38.33-.76.68-1.22.89-1.46.74-2.95,0-3.64-1.42-.36-.68-.37-1.45-.22-2.19.64-3.65,1.72-7.18,2.69-10.73.66-2.39,1.24-4.8,1.77-7.23.22-.99.41-1.9.57-2.86.09-.54.24-1.08.48-1.57.42-.81,1.13-1.54,1.99-1.87,1.86-.65,3.72.76,4.8,2.16,1.02,1.35,1.24,3.06,1.84,4.63.55,1.51,1.07,3.02,1.71,4.49.69,1.41,1.61,2.9,2.56,4.08.84,1.03,1.59,1.69,2.66.46.34-.37.68-.76.95-1.18.6-.99.93-2.06,1.34-3.12.61-1.73,1.16-3.44,1.52-5.27.14-.8.26-1.57.32-2.39.04-.51.05-1.02.09-1.53.12-1.04.28-2.11.35-3.17.08-1.01.26-2.04.38-3.05.09-.76-.04-1.52.08-2.27.21-1.11.69-2.16,1.33-3.08.66-.96,1.72-1.06,2.81-1.14.39-.04.79-.09,1.18-.04.7.08,1.24.6,1.69,1.1.51.56.95,1.21.99,1.98h0Z"/>
      </g>
      <path class="cls-3" d="M82.58,73.07c.59,1.98,1.38,3.94,1.71,5.98.07.45.13.91.22,1.37.1.51.26,1.01.39,1.52.21.84.27,1.72.34,2.59.05.77.07,1.55.31,2.29.98,3.11,2.28,6.1,3.41,9.16.17.49.34.98.49,1.47.7,2.37,1.5,4.72,2.25,7.07.34,1.23,1.07,2.74.17,3.89-.22.28-.48.53-.73.79-.42.46-.91.88-1.55.93-.69.06-3.58-.43-3.96-.99-.24-.37-.5-.77-.7-1.18-.19-.41-.42-1.2-.52-1.37-.27-.48-.65-3.02-.87-3.71-.19-.59-.35-1.19-.55-1.78-.25-.75-.64-1.45-.92-2.2-.19-.48-.27-1.01-.56-1.44-.36-.53-.93-.42-1.46-.27-1.35.43-2.43-.84-3.74-.88-.62-.02-1.22.16-1.81.32-.72.21-1.44.39-1.97.92-.48.5-.01.29.29.13.24-.13.49-.23.72-.35.32-.17.45-.11.45.25-.05,1.79-.24,3.6-.31,5.32-.02.75.05,1.51.08,2.26.03.76-.05,1.51,0,2.27.01.31.05.62.07.93.03.37-.29,3.38-.66,3.65-.45.37-1.05.46-1.62.4-.62-.04-1.25-.19-1.68-.65-.31-.32-.48-.72-.62-1.14-.45-1.31-.55-2.7-.8-4.06-.23-1.01-.31-2.04-.49-3.06-.06-.33-.11-.67-.15-1.01-.13-1.07-.06-2.15-.2-3.21-.05-.32-.24-.72-.14-.98.12-.35.57-.43.88-.61.32-.19-.09-.3-.34-.36-.82-.22-1.64-.6-2.16-1.29-.9-1.21-.74-3.41.89-3.78.35-.11.99-.21,1.3-.23,0,0,0,0,0,0,0,0-.02,0-.04,0-.07,0-.17,0-.24-.03-.12-.04-.09-.22-.04-.35.04-.11.09-.22.12-.33.09-.26.15-.54.18-.8.15-1.16.18-2.35.31-3.5.36-2.72,1.01-5.39,1.77-8.02.19-.72.35-1.46.54-2.19.37-1.35.92-2.65,1.47-3.94.17-.39.35-.78.51-1.18.26-.64.46-1.3.77-1.92.31-.65.79-1.2,1.29-1.72.41-.41.82-.92,1.38-1.1.95-.27,1.69.59,2.38,1.09.62.5,1.4.74,2.01,1.24,1.1.99,1.69,2.41,2.13,3.79h0ZM75.34,78.03c-.09-.29-.08-.34-.16-.57-.04-.12.1.1,0,0-.14-.02-.64.21-.83.21-.12.23-.3-1.12-.42-.88-.35.95-.28.93-.63,1.88-.12.43-1.12-1.34-1.24-.87-.15.56-.07,1.72-.31,2.19-.35,1.17-.67,3.55-.94,4.37-.57,1.72-.71,2.83-.31,3.44-.02.14.74-.31.73-.11l.09.29c.07.24.19.39.48.5.51-.03,1.09-.02,1.6-.05l3.54.02c-1.25-.48-.23-.56-.16-.69.27-.4.57-.17.47-.73-.23-.65-.81-.73-.21-1.09.76-.46-.31-1.79.1-2.49,1.36-2.29-.15-4.65-1.14-4.89-.12-1.64-.16-.95-.31.52-.03-.31-.27-.75-.36-1.04Z"/>
    </g>
    <path class="cls-2" d="M96.64,77.27c0,.36-.27.58-.62.56-.15-.03-.32-.17-.43-.28-.12-.14-.18-.31-.21-.48-.08-.31-.15-.64-.25-.94-.19-.58-.57-1.07-.91-1.57-.38-.47-.69-1-1.13-1.42-.31-.23-.2.34-.19.5.03.38.03.74.09,1.11.02.36.02.7.07,1.05.02.3,0,.57.04.86.02.25.05.48.05.74,0,.17-.04.38-.25.39-.11.03-.23.12-.35.05-.19-.11-.4-.21-.5-.41-.05-.08-.05-.17-.05-.25,0-.19-.05-.39-.05-.59,0-.72-.06-1.42-.14-2.14-.01-.22-.01-.43-.02-.64-.02-.23-.03-.45-.02-.68-.05-.44-.04-.92-.04-1.32,0-.37,0-.73,0-1.1.02-.29-.07-.69.15-.93.07-.07.18-.06.28-.04.14,0,.26.09.35.18.24.24.2.85.22,1.13.02.14,0,.77.26.45.2-.24.37-.49.56-.74.22-.28.47-.54.71-.82.09-.1.16-.18.26-.28.05-.05.11-.11.18-.12.11,0,.23.04.31.09.06.05.1.13.17.18.15.1.25.19.17.38-.05.14-.16.25-.26.35-.14.16-.28.34-.44.49-.15.16-.31.33-.46.49-.15.17-.29.38-.43.56-.12.14-.06.29.07.4.09.09.18.18.26.27.16.18.3.37.45.55.32.4.66.8.95,1.23.3.46.61.94.75,1.48.13.41.37.81.41,1.25h0Z"/>
    <path class="cls-2" d="M99.34,72.98c.03.09.05.19.04.29,0,.12-.05.23-.06.35-.01.08-.02.17-.03.25-.04.38-.12.75-.15,1.13-.01.16-.04.3-.06.46-.01.15,0,.31,0,.46,0,.37,0,.73,0,1.11.01.22,0,.55-.27.58-.09,0-.18-.02-.25-.08-.04-.03-.08-.08-.13-.1-.06-.03-.13-.04-.19-.07-.16-.06-.22-.2-.23-.36-.01-.17-.01-.35-.01-.52,0-.32,0-.64.02-.97.03-.24.06-.48.08-.73.04-.44.08-.89.18-1.32.04-.33.1-.64.19-.97.03-.13.08-.24.14-.35.04-.08.09-.17.16-.21.08-.04.17-.03.25-.03.49.04.2.76.31,1.07h0ZM99.77,70.61c0,.18-.18.24-.35.27-.11.03-.23.03-.33-.02-.18-.07-.45-.21-.3-.43.11-.15.27-.31.46-.33.2.02.37.16.47.34.03.05.05.11.05.17h0Z"/>
    <path class="cls-2" d="M106.27,70.12c.04.35-.13.45-.45.48-.34.1-.7.16-1.05.19-.47,0-.37.23-.38.58,0,.14-.05.27-.06.4,0,.41,0,.79-.02,1.21-.01.21-.04.43-.05.64-.02.37,0,.68-.02,1.04-.04.41-.05.86-.06,1.26,0,.25,0,.51-.02.76-.02.2-.05.39-.05.59.04.3-.12.42-.44.43-.52.02-.93-.33-.81-.86.05-.56.09-1.11.09-1.64.01-.76.03-1.53.08-2.29.02-.58.07-1.15.05-1.73,0-.23-.15-.23-.33-.19-.21.01-.41.03-.62.08-.18.03-.34,0-.45-.16-.08-.09-.2-.15-.24-.26-.07-.17.04-.35.19-.43.29-.15.62-.16.94-.21.36-.03.76-.09,1.13-.13.24-.02.47-.07.71-.11.23-.01.46-.03.69-.08.23-.02.47-.1.69-.06.12.03.17.16.26.23.08.08.21.11.23.23h0Z"/>
    <path class="cls-2" d="M111.32,71.37c0,.13-.19.35-.31.4-.11.05-.23.04-.34.03-.16-.01-.32,0-.47,0-.11,0-.25.02-.37,0-.14-.01-.29-.02-.44,0-.05.01-.1.03-.13.06-.1.11-.11.27-.11.41,0,.11-.02.22-.01.33.02.4.06.79.09,1.18.02.14,0,.34.2.34.18.01.35-.07.52-.11.09-.02.17-.04.26-.07.16-.04.34-.08.51-.05.22.05.54.24.42.51-.06.12-.18.21-.3.27-.13.08-.27.14-.42.17-.14.05-.29.09-.44.12-.14.04-.29.08-.43.1-.14.02-.17.13-.15.25.01.11.02.22.05.33.03.08.05.16.07.25.04.15.12.32.22.45.17.16.42.15.64.12.16-.03.32-.05.48-.04.25,0,.52.04.71.2.1.09.06.26.02.38-.05.09-.15.12-.24.17-.08.04-.15.1-.24.13-.22.06-.44.08-.65.11-.49.05-1.02,0-1.42-.3-.11-.1-.21-.22-.29-.35-.1-.2-.18-.4-.25-.61-.07-.21-.1-.4-.13-.61-.04-.18-.07-.36-.09-.54-.03-.24-.06-.45-.07-.68,0-.12.03-.24.03-.37,0-.23-.04-.44-.03-.67,0-.06.01-.13,0-.2,0-.27-.06-.53-.02-.8.04-.31-.05-.32-.33-.38-.1-.02-.19-.03-.27-.08-.18-.1-.3-.27-.1-.43.12-.11.21-.25.38-.29.14-.03.28-.04.42-.09.13-.04.26-.1.38-.12.13-.02.26.03.39.02.21,0,.42-.05.64-.05.19,0,.37.03.56.01.14,0,.28.02.42.02.08,0,.16,0,.24.03.12.06.38.25.41.39h0Z"/>
  </g>
</svg>