<svg xmlns="http://www.w3.org/2000/svg" viewBox="0 0 1912.73 200.27"><defs><style>.cls-1{fill:none;}.cls-2{fill:#00252c;}.cls-3{fill:#f0f;}</style></defs><title>top olas</title><g id="Capa_2" data-name="Capa 2"><g id="Capa_7" data-name="Capa 7"><path class="cls-1" d="M1327.52,65.7c0,1.21,0,2.42.08,3.64h36.61C1352.28,63.69,1339.76,67,1327.52,65.7Z"/><path class="cls-1" d="M1374.83,69.53c.65.31,1.33.93,1.94.87a14.14,14.14,0,0,0,3.06-1l-2.22-1.14Z"/><path class="cls-2" d="M1912.73,20.89c-24.27,7.48-49.66,8.79-74.44,13.42-52,9.72-104.5,16.65-157.15,21.92-42.4,4.24-84.89,7.58-127.35,11.33-1.23,4.61-5.13,3.37-8.11,3.37-37.79,0-75.58-.14-113.37-.23-14.77,4.81-29.48,2.29-44.35-1.92l44.54-2.44,108.3-3.7.78-6.65-15.39.58c-33.06,7.37-66.64,2.72-100,4.25-9,.42-18.08.07-27.37.07,1.18-4.17,8.7-1.35,8.15-7.22l-19.75.61c-.62,10.69-8.4,9.83-15.31,8.79-24.78-3.71-49.85-1.59-75.87-3,3.33-7.12,11.8-1,13.52-7.73-12.82-.64-25.65-1.21-38.46-2-16.07-.94-32.05-4-48.25-2,.49,5.49,4.74,5,8.35,5,12-.21,23.57,4,35.62,3.18-15.6,5.08-30.87,0-46.21-1.82-2.84-.34-2.17-4.06-2.83-6.34l-37.35-4.87c-2.7,2.64-5.19,2.27-7.51-.51l-17.48-1.63c-18.57,2.82-36.78.49-54.85-3.87l-12.49-.75c-10,2-20,2.71-29.75-1.25l-12.41-2c-2.61,2.72-5.1,2.4-7.48-.32l-24.62,0c-2.72.53-5.55,1.53-7.5-1.58-5.48-3.63-11.81-2-17.72-2.85-2.09,2.66-3.78,1.86-5.27-.61a13.46,13.46,0,0,0-9.35-1.07,50.1,50.1,0,0,1-37.95-1.45c-11.23-3.79-23.11-1.24-34.35-3.15C873.48,17.67,845.19,13.2,816.61,11Q652.36-1.8,487.61.22,423,.9,358.66,5.45C336.5,7,314.11,3.59,292.2,4.62c-50.42,2.36-100.88,6.87-150.76,15C108.59,25,75.32,28.16,43.33,39.3,30,43.93,15.07,48,0,45.8q0,49.35,0,98.7H1912.71Q1912.73,82.7,1912.73,20.89ZM1327.6,69.34c0-1.22,0-2.43-.08-3.64,12.24,1.25,24.76-2,36.69,3.64Zm49.17,1.06c-.61.06-1.29-.56-1.94-.87l2.78-1.25,2.22,1.14A14.14,14.14,0,0,1,1376.77,70.4Z"/><path class="cls-3" d="M308.87,200.27a.17.17,0,0,1,0-.07l-.53-.42.46.49Z"/></g></g></svg>