<svg xmlns="http://www.w3.org/2000/svg" viewBox="0 0 529.58 372.77"><title>cabañita 2</title><g id="Capa_2" data-name="Capa 2"><g id="Capa_1-2" data-name="Capa 1"><path class="fill-current" d="M446.85,179c-1.75-3-3.35-5.78-5.64-9.74l-16.67,5.95c-.39-1.23-.77-2.46-1.29-4.11l-13.09,10.33-.46-7-15.05,8.64c2.81-18.33,24.29-29,52.17-27.06l1-1.49-16.58-10,6.41-3.41-19.12-4.91,4.19-4.65-13.76-4.34c11.81-13.32,39.93-.48,52.2,23.71,10.92-13.25,24.67-19.52,41.7-16.84,6.69,1.05,13.06,3.18,19.26,9.32H503.61l.63,5.06h-14.3l.93,1.36c-2.3,2-4.6,4-7.17,6.17,10.61,1.11,20.73,3.8,29.31,10.6S528.1,181.31,529.58,193c-5.27-4.38-10.53-8.77-16.2-13.5-.24,2.52-.41,4.27-.7,7.37l-14-11.12c-1.4,5.53-4.25,3.83-7.41,2.07a73.82,73.82,0,0,0-12.06-5.38c14.81,13.29,23.71,28.69,21.09,49l-1.68.8c-2-4.59-4.07-9.19-6.46-14.58L488,215.12c-2.64-7.43-4.76-13.39-7.13-20l-3.46,4.28c-3.8-6.6-7.39-12.82-10.55-18.28L455,183.39c-26.71,52.29-37.51,108.46-33.17,168.19l10.75-8.16,1.12,1.22-9,9.8,8.93-3.54c.22.29.45.58.67.88l-2.89,3.8.62,1.14,10.51-5.41c-1.11,1.74-1.75,2.74-2.87,4.51l49,4-.09,1.76c-7.85,0-15.7-.16-23.54,0-50.07,1.16-100.14,2.54-150.22,3.54-34.84.69-69.71,1.87-104.52,1-33.56-.8-67-4.23-100.6-5.89C76,358.59,42.15,357.69,8.37,356.42c-2.78-.1-5.55-.48-8.32-.73,0-.56,0-1.12,0-1.68l19.92-2.63L14.35,344l.83-1.15,8.41,4.81-6.27-11.29,1.06-1c2.44,2.3,4.87,4.61,7.54,7.12v-92c-3.38,0-6.23.28-9-.09-2-.27-5.38-1-5.64-2.19a8.81,8.81,0,0,1,1.8-6.5c3.82-4.86,8.17-9.28,12.24-13.94C44,206.25,62.77,184.86,81.23,163.22c2-2.37,3.07-6.12,3.35-9.34.5-5.51.13-11.12-.08-16.68a14.37,14.37,0,0,0-1.15-6c-3.37-6.47-3.19-7.65,4.07-8,10.84-.55,21.73-.48,32.58-.12,6.27.22,6.56,1.53,3.72,7.54-.71,1.5-.5,3.43-.83,6.17,19.66-3.71,38.38-7.36,57.14-10.74,20.24-3.65,40.54-7,60.79-10.62,5.12-.91,8.15.84,11.23,5.11,25.84,35.69,52,71.18,78,106.71a11.29,11.29,0,0,0,3.07,3c13.52,8.15,27.08,16.22,41.18,24.64,1.7-57.45-6.28-113.44-16.95-169.32H350c-.6,2.19-1.28,4.68-2.18,7.93l-3.89-3a1.25,1.25,0,0,0-.51.51c-3.28,7.66-6.54,15.34-10.06,23.64l-4.78-4.45c-1.17,8.65-2.29,16.86-3.4,25.06l-2,.46L318,126.48c-2.39,7.94-4.55,15.13-6.91,23-11.12-16.35-1.29-47.27,22.64-77.88l-20.62,13V75.93L295.06,95.1c-.66-4.21-1-6.5-1.58-10.13l-23,20.63-1.29-.64a81,81,0,0,1,2.26-9.06c8.23-22.28,24.37-35.48,47.24-41,4.1-1,8-2.77,12-4.19l-.36-3-27.55-2.65-.69-1.74,9.73-6.14c-10.57-3-20,2.34-31.81,3.45l7.69-9.54L263,34.88c4.62-10.81,30.33-20.78,46.74-18.79,18.42,2.24,31.17,13.75,43.8,27.17,7.1-25.71,24.6-38.86,49.52-42.47,9.35-1.36,19.14-1.67,28.58,5l-25.73,6.65,6.86,5.08L390,26.16l4.52,4.19-15,8.89L380,40.8c15.77-4.35,31.7-8.55,47.92-4.38C444,40.54,457,49.76,467.8,61.89l-.92,1.83L434.2,52.33l5,10L438,63.89l-22.06-8c.82,2.38,1.38,4,2.25,6.5l-23.43-1.79C405,67,416.68,73,426.83,80.9s16.68,19.08,20.55,31.37l-1.54,1.32L423.89,95.51c.75,4.51,1.27,7.6,1.79,10.69l-1.42,1.06L398.21,84.61c.3,3.49.48,5.55.82,9.59L376.56,77.72l-6.35,5.6c4,18.84,8.94,37.54,11.7,56.55,4.8,33,9.74,66,11.84,99.22,2.33,36.76,1.53,73.72,2.09,110.59,0,.62-.25,1.37,0,1.83,1,1.69,2.09,3.27,3.16,4.9.88-1.56,2.37-3.05,2.52-4.68,1-10.86,1.41-21.79,2.67-32.61,5.18-44.4,15.69-87.35,35.88-127.54C442.2,187.35,444.56,183.25,446.85,179Zm-99.51,74c-12.42-7.92-25-15.55-37.18-23.87-5.72-3.91-11.19-2.31-17-1.89,4.11,3.52,8.42,6.28,12.58,9.25,8.12,5.79,16.16,11.71,24.23,17.58a19,19,0,0,1-3.88-1.5c-11.63-7.69-23.5-15.05-34.68-23.35-6.63-4.93-13.17-2.87-20-2.58a46.43,46.43,0,0,0,7.19,6L307.79,254a16.17,16.17,0,0,1-3.87-1.39c-10.34-7-21.32-13.33-30.69-21.48-7.61-6.61-15.42-5.31-25.58-5.27,5.91,4.21,10.42,7.29,14.78,10.56,7.79,5.85,15.5,11.82,23.23,17.73-11.36-7.63-23.43-14.42-33.84-23.18-7.74-6.5-15.47-5.3-25.68-5.23,9.11,6.2,16.76,11.23,24.22,16.54,5.29,3.76,10.31,7.9,15.45,11.86-12.45-8.28-25.14-16.23-37.26-25-7.78-5.6-15.59-4.33-23.77-2.4l-16.22-2.09c12.08,10.2,24.71,18.29,36.5,27.45,6.08,4.72,11.79,2.69,17.81,2.68-4.12-3.53-8.36-6.44-12.52-9.46-8.62-6.24-17.21-12.54-25.81-18.81a18.59,18.59,0,0,1,3.89,1.51q18.38,12.45,36.63,25.08c4.5,3.13,16.27,3.78,20.56.81,5.89.75,11.77,1.57,17.67,2.14.66.06,1.45-1.38,2.18-2.12,7.39,2.93,14.75,3.28,22.08-.19,7.39,2.43,14.79,4.06,22.2.08,5.17.61,10.32,1.31,15.5,1.69.56,0,1.25-1.79,1.88-2.75a21.19,21.19,0,0,0,16.23,2c-14.31-8.88-28-17.57-42-25.9-2.75-1.65-6.33-1.93-9.52-2.84-.15.54-.31,1.09-.46,1.64,8.95,5.83,18,11.53,26.8,17.54C341.5,247.5,344.31,250.41,347.34,253ZM132.22,143.77c-4.32,6.24-8.16,12.9-13.08,18.62-6,7-11,15.48-20.66,18.61-7.75-3.26-13.08-2-17.93,3.85-15.3,18.35-30.7,36.62-46,55-.93,1.1-1.66,2.36-2.55,3.64,8.75,1.7,14.13-1.21,19.51-7.86C66.6,216.85,82.81,199,98.6,180.82c-1.42,2.43-2.53,5.12-4.3,7.26-10.78,13-21.7,25.88-32.57,38.82-4.27,5.08-8.52,10.18-13.84,16.55,7-1.47,12.55,1.58,17.13-4q28.42-34.62,57.41-68.78c8-9.43,16.38-18.5,24.59-27.73l1.33,1.15q-41.23,48.66-82.45,97.33l1.33,2.14c4.71-1.22,11.23-.88,13.82-3.91,17.53-20.49,34-41.86,51.27-62.61,11.56-13.92,23.78-27.29,35.7-40.91a96.7,96.7,0,0,1-5.71,8.62c-14.41,17.48-29,34.82-43.43,52.3-12,14.53-23.86,29.18-36.77,45,6.52-1.22,12,2,16.5-3.67q28-34.93,56.54-69.49c8.95-10.86,18.37-21.35,27.57-32l1.11.93L99,240.56c6.16-.08,11.88,3,16.6-2.91,21.32-26.72,43-53.15,64.61-79.66,8-9.85,16.15-19.62,25.11-30.49-10.9,2-20.41,3.53-29.84,5.47-2.68.56-5.12,2.23-7.69,3.4-3.06,0-6.25-.62-9.17,0-8.59,1.88-17.08,4.26-25.6,6.45-3,0-6.69-1.1-8.84.25-1.57,1-1.15,5.16-1.89,9.56ZM33.48,260.45c0-1,0-2,0-3L154,255.53v-8.79L32,250.21V299.4H67.33V272.73H33.42c0-.56,0-1.13,0-1.69H66.62c2.91-6.52,3-6.76,9.46-6.89,11.33-.21,22.69.14,34-.41,5.89-.29,7.08,2.57,7.07,7.29v13.72h35.1l0,1.73h-35v13.24c6,0,11.74-.07,17.46,0,5.35.08,10.7.32,16.05.49,0,.62,0,1.25-.05,1.87H117.09c-.39,6.61-4.68,7.28-9.88,7.13-10.1-.29-20.2-.39-30.3-.36-5,0-9.09-.77-9.23-6.53H32.12v12.1H153.84V258.51Zm118.27,68.18c0,.67-.05,1.35-.08,2H32v9.44l122.5,2.69V317.37H32.14v11.26ZM181,219.7H304.53c-1.63-3.37-3.28-5.67-8.07-5.69-33.36-.1-66.72-.59-100.08-1-1.84,0-3.67-.28-5.5-.43.05-.53.11-1.06.16-1.59H298.13c-3-6.16-5.95-10-13.21-9.21-7.53.8-15.23,0-22.85.16a15,15,0,0,0-6.9,1.81c-7.85,4.54-15.25,3.72-22.71-.86a13.11,13.11,0,0,0-6.12-2c-8.65-.26-17.3-.26-26-.21-1.74,0-4.17.07-5.1,1.13C190.64,207.18,186.38,212.85,181,219.7Zm-64.33,19.66c.2.49.4,1,.59,1.46,5.39-1.28,11.29,2.1,16.2-4,24.92-30.91,50.17-61.57,75.31-92.31,5.25-6.43,10.53-12.84,16.61-20.24-6.14,1-10.84,1.51-15.43,2.53a8.47,8.47,0,0,0-4.23,3c-10.34,12.8-20.45,25.78-30.84,38.54Q145.84,203.94,116.63,239.36ZM240.58,122c-9.17-.16-15.59,2.31-19.11,10a16.66,16.66,0,0,1-2.58,3.46q-38.55,47-77.12,94.06c-2.69,3.28-5.41,6.52-8.69,10.47,7.72.69,12.91.39,17.9-6.16,18.19-23.89,37.32-47.08,56.13-70.5C218,149.77,229.05,136.24,240.58,122Zm125.5,233.42,1.15-.78-4.69-13.17,1.38-.66,4.7,6.63,1.77-.13q2.58-43.17,5.15-86.2l-17.31.91c0,7.46,0,14.43,0,21.4q0,34.63-.07,69.25c0,2.77-.7,6.32,4.48,4.58l-1.42-6.69,1-.6ZM352.28,262H326.11v45.85h26.17Zm-197.49,84L31.9,343.13v7.37l122.89,6.59Zm-2.32-106.65,1.76,1.73c2.65-2.52,5.61-4.79,7.89-7.6q39.33-48.41,78.5-97c1.59-2,3.44-3.72,5.37-5.79,1.26,1.46,2,2.18,2.59,3,20.25,27.75,40.44,55.56,60.84,83.2,1.78,2.42,5,3.79,7.53,5.65l1.37-1.63-71.5-97.53C215.1,162.47,183.78,200.94,152.47,239.42ZM236,328.65c0,3.31-.37,6.4.16,9.33.26,1.41,2.21,3.58,3.42,3.59q29,.24,58-.19c1.26,0,3.36-2.19,3.55-3.57.4-2.92-.2-6-.4-9.16Zm64.93-14.73H236.55v11.16H300.9Zm-110.53-6.5h18V266.61h-18Zm67.66-11H236.65c-.18,3.09-.2,5.75-.52,8.36-.57,4.52,1.08,6.27,5.81,6.08,8-.32,16.08-.05,24.12,0h34.68v-7.28c-11.72,0-23.05-.16-34.37.06C261.13,303.74,257.24,302.94,258,296.45Zm-97.58,61.34,48.85,2.9V347.05H160.45Zm.26-77.45v13h23.75V266.65H160.68v10.81l21.72,1.13v1.75ZM19.86,243.2c.15.6.29,1.2.44,1.8,3.23-1,7.62-1,9.5-3.15,17.43-20,34.37-40.5,51.58-60.72,3-3.56,4.26-7.08,2.49-12.14ZM316,358.35h36.51V347.66H308.34ZM160.54,264.28c7.59,0,14.74,0,21.88,0,.73,0,2-.29,2.1-.71,1.5-4.92,5.58-3.29,8.79-3.42,5.38-.21,10.77-.06,16.15-.06l.64-2.47c-3.72-2.14-7.35-5.87-11.2-6.11-12.64-.78-25.36-.3-38.36-.3Zm-59.87-90.74V128.37c-12.6,1.07-12.6,1.07-10.66,7.92l7.17.83-.11,1.44-7.27,1.08v8.08l9.29,1c0,.47-.09.94-.13,1.41l-8.83.56v7.72l8,.63,0,1.63-8.11,1v11.91Zm258-127c7.13-7.88,14-17.3,22.67-24.53S400.37,9.86,408.7,4.75C385.49,3.67,358.22,22.89,358.65,46.51Zm17,286.15c-.86,7.91-1.72,15.9-2.57,23.87h17.38V335.24ZM349.69,48.35c-15.33-25.16-44.92-35.81-66.82-21.83C308.77,23.42,330.59,31.54,349.69,48.35ZM196.79,248.21,171.64,231.6c-10.17,8.47-11.51,10.53-10.53,16.61Zm181,58.14c-.4,5.65-.18,11.25-1.35,16.54-1.37,6.22,1.63,7.6,6.6,7.81,2.36.1,4.72,0,6.91,0V306.35ZM390,244.22l-10.7,1c0,8.8-.19,17.21.19,25.59.06,1.35,2.82,3.78,4.08,3.63,2.64-.32,7.27-2,7.3-3.17C391.12,262.54,390.43,253.76,390,244.22ZM446.46,50.48C426.53,35.16,389.65,36.56,369.55,54,395.61,44.48,420.8,41.8,446.46,50.48ZM219.78,172.39c5.09.69,9.44,1.21,14.07-2.21,6.44-4.78,14.14-5.5,20.58-.16,5,4.16,10,3.12,16.07,3-3.68-6-6.88-10.48-14.49-9.8a92.32,92.32,0,0,1-20.95-.5C226.94,161.57,223,165.63,219.78,172.39ZM117.85,147.25V129.3l-11.93-.8v8.82l8.58.72c0,.59,0,1.17-.07,1.76l-8.42.6v17.81l11.87-1v-6.8l-8.32-.91c0-.53,0-1.06.08-1.58ZM278.72,91.79c15.56-22.65,38.91-29.7,66.25-32.13C317.42,53.08,289.38,66.84,278.72,91.79ZM111.56,288.7c-16.88-3.82-19-2-16.7,14.33h16.7ZM237.14,266v11.41l20.75.92c.28-5.39.56-10.76.85-16.29H237.8v.19l18.63,1.81-.12,2Zm-76.61,41.07h24.13V296.22H160.53Zm-49.1-23.31V269.5c-20.16-1-18-2.33-17.3,13.55,0,.18.21.34.45.72Zm64.74-58.71c-.09.55-.18,1.11-.26,1.66,12.6,8.83,25.05,17.88,37.9,26.32,3,2,7.33,1.8,11,2.61-13.18-10.75-26.5-20.29-40.11-29.37C182.58,224.83,179.06,225.42,176.17,225.06Zm202.17,76.7h12V278.51H379.5C379.11,286.34,378.74,293.85,378.34,301.76ZM257.93,281.12H237.1v12.41h20.83Zm51.75,77.35c-4.61-3.47-53.56-4-64.75-.73,2.09,1.35,4.38,2.61,6.66,2.58,17.86-.24,35.72-.71,53.58-1.15A40.79,40.79,0,0,0,309.68,358.47Zm-8.37-8.54c-2.66-3.67-55.45-4.57-64.44-.57,4.16,1,6.66,2.19,9.15,2.16,17-.22,34.07-.67,51.1-1.08A41.38,41.38,0,0,0,301.31,349.93ZM216.53,266l-1.82,1.75c0,11.93.09,23.87,0,35.8,0,4.9,2.41,4.83,6.32,3.57,0-12.42.14-24.73-.2-37C220.75,268.7,218,267.37,216.53,266Zm-127,37.27V288.41H73.9v14.87ZM237.85,361c-3.13-4.9-5.69-8.89-8.22-12.84H215c.2,4.59.38,8.56.57,12.84ZM432.9,95.6C422.77,76.06,391,62.82,372,64.81A135.9,135.9,0,0,1,432.9,95.6Zm-208.58,93c-17.8-1.63-20.47-.6-24.9,9.38h28.12C226.39,194.61,225.4,191.75,224.32,188.6Zm153.75,28.47,1.41,23h10.2c-.54-7-1-13.49-1.56-20-.1-1.17-.44-2.31-.74-3.84Zm-89.18-18.53c-6.11-11-9.62-12.28-25.38-9.34-.92,2.92-1.81,5.79-2.77,8.86a15.72,15.72,0,0,0,2.56.46C271.67,198.55,280,198.54,288.89,198.54Zm-28.55-38.8c-9.48-13.13-23.37-13-30.07,0ZM89.54,284V270.21H73.86V284ZM376.72,184c.51,9.54,1,18.81,1.53,28.41l8.8-.64c-1-8.12-2.14-15.4-2.61-22.72C384.13,184.11,382.41,182.19,376.72,184Zm-99.14,97.27v-13.3h-13.7v13.3ZM264.35,298h13.22V285.58C262.51,284,262.3,284.24,264.35,298Zm31.74.26V285.34H282.77v12.89ZM376.44,70.6c-.19.46-.39.93-.59,1.39L388.31,81c-.37-2.27-.58-3.57-.8-4.87l1.24-1.46L418.68,95.4c.31-6,.53-6.43-5.42-9.6-8.28-4.4-16.86-8.3-25.47-12C384.23,72.2,380.24,71.62,376.44,70.6ZM296.06,267.93H282.9V281.2h13.16Zm87.2-89.63c-1.32-8.53-2.65-17.11-4-25.91l-5.63.79c.71,7.24,1.62,14.12,2,21C375.9,179.6,378.25,180.53,383.26,178.3ZM319.54,281.44H306.87V293.2h12.67Zm-12.74-2.83,12.66-.59V266.69H306.8ZM312,126.91c5.57-19.63,15.64-36.72,29.32-51.78C324.4,88.39,313.62,105.08,312,126.91Zm95.68,196.65c-.43,5.48-.82,10.47-1.24,15.72l9.8,1.17v-16.4ZM306.9,296.61v11.2h12.56v-10.6Zm142.94-134c-13.33-8-36.07-3.2-43.46,9.1C419.78,162.82,433.85,161.38,449.84,162.62Zm51.79-24.16c-15.81-3.33-33.73,5.14-37.52,17.56C474.93,146.44,487.44,140.9,501.63,138.46Zm-240.7,38c1,3.07,1.89,5.91,2.7,8.43h15.18C275.86,175.68,269.17,175,260.93,176.51ZM219.79,314.15,218,313.08c-1.11,1.22-3.12,2.4-3.17,3.66-.31,7.16-.26,14.34,0,21.5,0,1.1,1.68,2.15,2.59,3.22.78-.95,2.22-1.89,2.25-2.86C219.87,330.46,219.79,322.3,219.79,314.15Zm186.06,28.67c.28,5-.55,9.55,1.18,12.7.81,1.48,6.55.25,10.45.25-.39-4.57-.66-7.78-1-11.2Zm2.53-23.44h7.75c2.54-17.48,2.4-18-5.14-18.18C410.17,306.9,409.34,312.69,408.38,319.38Zm-247.67,9.33v11.58h9.9V328.71ZM327,340.47l2.23,1.42c1-1.37,2.8-2.7,2.85-4.11.28-7.6.13-15.21.13-22.82l-1.64-1.13c-1.19,1.29-3.35,2.53-3.41,3.87C326.82,325.28,327,332.88,327,340.47ZM199.59,327.6h.25c0-3.69.22-7.41-.13-11.06-.11-1.06-1.85-2-2.84-2.92-.76,1-2.15,1.94-2.17,2.93q-.24,10.76.08,21.52c0,.93,1.55,1.82,2.37,2.72.82-.91,2.25-1.77,2.33-2.75C199.77,334.58,199.59,331.08,199.59,327.6Zm153,.26c0-3.69.17-7.4-.13-11.07-.07-.85-1.69-2-2.75-2.18-.6-.13-2.19,1.29-2.2,2-.12,7.18-.09,14.37.17,21.55,0,.85,1.7,1.64,2.61,2.46.76-1,2.09-1.91,2.18-2.95C352.72,334.45,352.54,331.15,352.56,327.86Zm-10.17-12.74-1.7-1.12c-1.21,1.25-3.41,2.44-3.47,3.74-.34,6.55-.25,13.13,0,19.69,0,1.14,1.54,2.23,2.37,3.34.93-1,2.64-2,2.68-3C342.5,330.22,342.39,322.67,342.39,315.12Zm-181.82-1.4v11.59h9.65V313.72Zm85.94-112.4c7.12-2.06,10.71-5.76,11.77-12.5H246.51Zm11.13-16.88c-1.25-7.54-4-10.41-11.24-11.64v11.64Zm-48.51,143.2c0-3.48.2-7-.1-10.43-.11-1.26-1.43-2.41-2.19-3.6-.79,1.15-2.23,2.28-2.26,3.45-.21,6.95-.2,13.92,0,20.87,0,1.13,1.62,2.2,2.49,3.29.68-1.05,1.85-2.06,1.93-3.15C209.3,334.61,209.14,331.12,209.13,327.64Zm.45-143h14.94l2.48-8.17C216.21,175,215.82,175.17,209.58,184.59Zm32.3-.32V172.74c-7.71,1.14-10.87,4.49-10.79,11.53Zm-11.53,4.22c1.49,8,4.49,11.08,11.31,11.95V188.49Zm139.16-57.93c.93,5.27,1.49,9.75,2.61,14.1.38,1.47,2.16,2.59,3.31,3.87.83-1.7,2.45-3.45,2.32-5.07a94.52,94.52,0,0,0-2.19-12.06,6.84,6.84,0,0,0-1.08-1.72Zm-53-90.22,24.06,6.8c.2-.39.4-.78.59-1.17L321.76,34.6Zm101.3,258c.48-5.74,1.05-10.59,1.18-15.45,0-1.17-1.44-2.37-2.21-3.55-.86.9-2.26,1.68-2.47,2.71-1,4.74-1.68,9.54-2.53,14.7ZM320.05,73.17l24.55-8.92-.27-1-26,3.77C319.16,69.93,319.71,71.94,320.05,73.17Zm50.3,54.43c1.6-2,3.67-3.43,3.5-4.54-.82-5.35-2.25-10.62-3.49-16C366,109,365.92,116,370.35,127.6Zm62.74.84,22.36,21.16C453.88,140.75,442.84,130.36,433.09,128.44Zm-100-25.72,10-21.66c-4.22,4-7.59,8.52-11.13,13C329.28,97.34,329.23,100.19,333.08,102.72ZM364.92,83l-3.21.73c1.16,5.91,2.26,11.83,3.57,17.71a2.69,2.69,0,0,0,2.15,1.52c.69,0,2-1.31,1.87-1.78C368,95.05,366.41,89,364.92,83Zm36.42-26.54c-4.55-6.47-14.29-5.82-24.18,0ZM359.27,75.74c-2.53-2.28-3.93-3.53-5.33-4.78-1.8,2.18-4,4.19-5.15,6.68-.3.65,3.36,4.27,3.91,4C354.83,80.54,356.45,78.44,359.27,75.74Zm14.32-1.37c-3.33-2.14-5.28-4.31-7.34-4.43-1.6-.09-3.35,2.39-5,3.73,1.62,1.85,3,4.87,4.92,5.2S370.14,76.6,373.59,74.37ZM419.78,276c1-5,2-9.54,2.73-14.14a4,4,0,0,0-.74-2.72c-.24-.32-2.06-.1-2.11.12q-1.86,7.86-3.31,15.82C416.33,275.17,418.41,275.64,419.78,276Zm86-109.35c-10.14-5.62-20.24-8.36-31.23-5.86ZM365.35,45l1,.76c5.58-5.22,11.17-10.44,16.48-15.42l-2.56-3.52ZM311.29,335h-.1a13,13,0,0,0-.07-3.64,13.26,13.26,0,0,0-2-3.12c-.88,1.06-2.31,2-2.52,3.22a26.55,26.55,0,0,0-.1,7.29c.09.85,1.63,2.36,2,2.22a5.14,5.14,0,0,0,2.7-2.36C311.64,337.6,311.29,336.22,311.29,335ZM180,314l-1.73-.77c-.93,1.24-2.62,2.45-2.65,3.71-.07,2.85.67,5.73,1.08,8.6,1.1-.66,3.06-1.23,3.15-2A84,84,0,0,0,180,314Zm240.12-58.2c5-2.55,8.11-12.83,6-19.58C423.93,243.33,422.24,248.87,420.13,255.77ZM180.9,334.41l-2.79-6.18c-.83,1.73-2.43,3.51-2.33,5.18.15,2.42,1.52,4.77,2.36,7.15C179,338.61,179.89,336.65,180.9,334.41ZM299.79,82.9,309.9,72.73l-.62-1.13-12,5.73Zm6.62,230.43c0,4.48-.37,7,.17,9.31.25,1.08,2.29,1.74,3.51,2.58.38-2.92,1.05-5.85,1-8.76C311,315.63,308.78,314.87,306.41,313.33ZM412.66,50.38,429.46,56C426.23,46.49,418.64,50.74,412.66,50.38ZM239.17,147.13h12.28l-6-7.67ZM227.55,293.64c4.6-2.9,4.55-10.3,0-13.24Zm-.67,33.81c0,4.53-.1,8,.08,11.41,0,.74,1,1.54,1.72,2.05.29.21,1.22-.15,1.62-.51C232.17,338.66,230.58,330,226.88,327.45Zm92.28-.12c-3.84,5.51-3.48,11.29,0,13.61Zm-91.71-49.66,2.1.38a54,54,0,0,0,1.16-7.83c0-1.52-1.05-3.05-1.63-4.57l-1.63.64Zm2.35,35.76-2.31.34v11.71l1.62.52c.58-1.68,1.6-3.35,1.63-5A48.58,48.58,0,0,0,229.8,313.43Zm-2.25-6.08,1.46,1c.64-1.42,1.8-2.85,1.81-4.28a59.76,59.76,0,0,0-1-8.15l-2.3.32ZM401.19,17.41c-2.6-4.18-6.74-2.61-13.95,5.49ZM434.74,219.3l-2.06-.74q-2.74,7.55-5.48,15.1l2.34.84Q432.15,226.9,434.74,219.3Zm72.62-41.87c-.39-6.08-3.39-8-11.69-8.23ZM106,168.06l1.27.55,6.84-8.56-8.11.39ZM317.16,325.27l1.78-.11V314.61l-1.78,0Zm5.1-203.65q1.22-6.69,2.44-13.37C321.92,112.33,317.94,116.17,322.26,121.62Zm132.17,49.17c-.42-.9-.83-1.8-1.24-2.7l-6.83,2.14c.87,1.34,2.21,3.93,2.53,3.81A32.09,32.09,0,0,0,454.43,170.79Zm24.14-3.88,11.92,5.21C489,163.66,483.24,166.56,478.57,166.91Zm-19.37,3.81c-1.59,2.21-3.21,3.49-3.05,4.46.25,1.47,1.74,2.73,2.7,4.09,1.21-1.11,3.19-2.09,3.4-3.36S460.76,173.21,459.2,170.72Z"/><path class="fill-current" d="M28.08,370H143.35v2.13c-38.32,1.05-76.65.57-115-.26Z"/><path class="fill-current" d="M33.36,285.62H65c0,.59,0,1.18,0,1.76H33.46C33.42,286.8,33.39,286.21,33.36,285.62Z"/><path class="fill-current" d="M151.09,271.67H119.58c0-.45,0-.89,0-1.33h31.3C150.94,270.78,151,271.22,151.09,271.67Z"/></g></g></svg>
