<svg xmlns="http://www.w3.org/2000/svg" viewBox="0 0 435.91 428.28"><title>combi1</title><g id="Capa_2" data-name="Capa 2"><g id="Capa_1-2" data-name="Capa 1"><path class="fill-current" d="M406.66,138.4c0-1.61.11-3.24,0-4.84-.57-7.2-1.76-14.41-1.68-21.6.13-11.93,5.78-14.32,18.71-13.7,1.81.08,3.6.63,5.41.71,4,.16,6.74,2.59,6.79,6a272.41,272.41,0,0,1-1,30.65c-.53,5.2-13.21,9.67-19.69,7.75-1.09-.33-2.16-.74-2.77-.94-6.72,12.64-7.05,25.83-5.22,39.47,1.46,10.86,2,21.86,2.76,32.8,1,14.56,2.5,29.13,2.69,43.71.19,14.76-.82,29.54-1.53,44.31-.44,8.93-1.33,17.84-2,26.77-.07,1-.42,2.38.08,2.93,4.37,4.8,5,10.67,6,16.76,1.15,7,1.18,13.9-2.24,19.67-1.93,3.24-7,5.34-11,6.48-9.7,2.72-9.84,2.37-10.49,12.28-.49,7.61-.42,15.29-1.39,22.84-1.22,9.61-3.33,15-14.87,14.35-7.45-.41-15-.07-22.36-.94-9.24-1.09-12.61-4.74-13.4-14.12-.54-6.43-.09-12.95-.08-19.43v-7.7a77.26,77.26,0,0,0-8.76,1.32,6.83,6.83,0,0,0-3.62,2.66c-3.35,5.13-6.86,7.2-12.5,5.65-3.63-1-6.87-3.34-10.34-5-1.37-.65-2.89-1.52-4.29-1.44-7,.36-13.91,1.34-20.87,1.5-26.25.59-52.5,1.32-78.75,1.26-21.08-.05-42.16-1.11-63.24-1.83-3.32-.12-5.68.27-8.08,3.29-1.86,2.36-5.59,4-8.7,4.42-3.65.53-7.56-.37-11.3-1a6.24,6.24,0,0,1-3.49-2.45c-3.9-5.53-3.83-5.58-11-5.25,0,2.06.12,4.16,0,6.25-.64,8.91-.85,17.9-2.21,26.71-1,6.52-4.15,8.39-10.83,8.72-6,.29-12,.59-17.94.79-13.06.44-19.12-5.18-19.85-18.7-.44-8.29-.66-16.61-.68-24.91,0-3.23-1.52-4.42-4.29-4.83a24.9,24.9,0,0,1-2.47-.37C21.93,376,18.5,371.7,19.37,357.16c.46-7.75-1.68-16.68,7.47-21.66.65-.35.55-2.48.43-3.75-1.15-12.71-3.16-25.4-3.44-38.13-.59-27.08-.91-54.2-.12-81.27.46-15.88,3.3-31.68,5-47.52.35-3.29.08-6.14-2.38-9.19-1.75-2.16-1.13-6.25-1.65-10.07-2,.31-4.33.58-6.65,1.06C10.49,148.18,1.48,143,.62,135.49c-.91-8-.62-16.18-.38-24.28.17-6,3.84-9.5,9.71-10.12a45.92,45.92,0,0,1,11.83,0c4.2.65,7.07,3.26,7.65,8,.76,6.21,1.84,12.37,3.14,18.53C37.82,101.73,43.65,76.13,54.44,52c1.22-2.73,3-5.23,4-8,.72-1.94.3-4.29,1-6.25.6-1.75,1.91-4.49,3.08-4.59,5.21-.41,8.79-3.43,12.62-6.35,9-6.87,19.52-10.53,30.22-13.67a326.8,326.8,0,0,1,89.49-13c31.1-.28,62.31-.43,93.13,4.12,18.46,2.72,36.63,7.59,54.77,12.12,5,1.24,9.54,4.55,14.14,7.17,5,2.83,8.85,7.48,15.11,8.21,1.13.13,3.13,3.63,2.67,4.6-1.38,2.88,0,4.36,1.26,6.65,4.3,7.65,9.22,15.23,11.84,23.48,5.16,16.25,9.08,32.91,13.23,49.47,1.85,7.37,3,14.93,4.47,22.4ZM34.08,163.62c0,9.06.89,18.94-.17,28.61A527.74,527.74,0,0,0,32,283.3c1.08,16.9,2.31,33.8,3.2,50.71.17,3.22,1.38,4.42,4.26,4.83,4.93.69,9.83,1.83,14.78,2.19,16.21,1.18,32.44,2.08,48.59,3.09.92-4.87,1.26-9.05,2.59-12.88.82-2.38,2.83-5.61,4.86-6.07a39.15,39.15,0,0,1,13.19-.22,6.45,6.45,0,0,1,6,6.24c.52,5,1.6,10,2.45,15.14a4.64,4.64,0,0,0,1.31.39c21.08.38,42.17,1.3,63.24,1,31.27-.51,62.52-1.91,93.78-2.93,3.81-.13,9,1.16,11.05-.82,2.16-2.12,1.41-7.31,1.73-11.18.55-6.6,2.48-9.21,7.64-9.91,8.86-1.22,13.9,1,15.93,7.35,1.25,3.9,2.13,7.92,3.3,12.37,23.75-2.09,47.79-2.62,71.12-8.22,1-22,2.11-43.53,3-65.08.34-7.79.82-15.62.43-23.39-.93-18.08-2.56-36.13-3.47-54.22-.49-9.76-.08-19.56-.08-29.49-4.6.69-8,1.53-11.46,1.68-17.78.76-35.55,1.64-53.34,1.92-18.46.29-36.94,0-55.4-.15-21.64-.2-43.27-.93-64.91-.74-23.29.21-46.59,1.94-69.88,1.69C109.24,166.17,72.52,164.69,34.08,163.62Zm366.33-6.05c.24-3.23,1-6.2.55-8.93-2.08-11.4-4-22.85-7-34-4.84-18.4-9.64-36.89-15.95-54.81-4-11.35-9.89-22.35-22.44-27.46-4.88-2-9.19-5.38-14.09-7.28-24.4-9.47-50.16-12.35-75.93-14.78-11.67-1.11-23.49-.6-35.21-1.31C197.5,7,164.8,8.12,132.5,14.3A267.3,267.3,0,0,0,89.6,26.54c-13.4,5-24.39,13.4-30.11,27.76-6.35,15.92-11.91,32-15.24,48.8-3,15.13-5.77,30.3-9.23,45.32-1.94,8.43-.64,11.14,8.08,11.5,18.45.76,36.9,1.94,55.35,1.85,39.91-.2,79.82-1.24,119.73-1.63,15.8-.15,31.6.83,47.41.77C310.26,160.74,355,161.36,400.41,157.57ZM303,352.82c-57.83,2.86-115,6.16-172.66,2.35,0,6.17.15,11.64,0,17.1-.17,4.77,2.32,5.74,6.49,5.84,8.62.2,17.23.93,25.85,1.26,10.44.4,20.91,1,31.35.78,10.93-.26,21.83-1.86,32.77-2.13,17.62-.43,35.26-.26,52.9-.32,7.75,0,15.51,0,23.34,0Zm26.78,23.38c6.26-.53,12-.83,17.78-1.56q27.14-3.42,54.23-7.17c3.56-.49,6.34-2.67,6.32-6.59,0-6.55-.5-13.1-.79-19.9-26.1,6.34-51.93,7.12-77.54,8.19ZM102,351.49c-2.78,0-5.25.06-7.72,0-19.87-.5-39.74-1.06-59.18-5.91-4.89-1.22-7.09.29-7.57,5.37-.33,3.46-.22,7-.23,10.45,0,5.76,2.24,8.57,8.08,9.26,14.63,1.72,29.26,3.53,43.93,4.74,7.86.65,15.81.12,23.77.12C102.67,367.4,102.33,359.82,102,351.49Zm23.33-19.55c-2.14-.44-3.9-.95-5.69-1.13-6.66-.68-7.39-.28-8.38,6.42a86.66,86.66,0,0,0-1.15,15.32c.32,10.05,1,20.09,2,30.1.3,3.32,4.65,4.94,9.16,4,3.39-.72,3.2-3.3,3-5.86C122.58,364.59,122.38,348.44,125.29,331.94Zm183.76-3.87a22.13,22.13,0,0,0-.54,4.45c1.25,16.34,4,32.62,1.72,49.1a4.23,4.23,0,0,0,2.29,3.39c4.93,1.39,9.48-1.36,9.7-6.45.54-13.05,1.24-26.17.47-39.18C322.05,328.44,319.39,326.94,309.05,328.07ZM23.65,141c-2.13-3.31-4.13-6.54-6.25-9.69-1.46-2.17-3.35-4.09-4.49-6.4-.57-1.16.09-2.92.2-4.41,1.45.7,3.37,1,4.26,2.16,4.3,5.53,8.32,11.28,12.78,17.42.83-3.47,1.5-6.25,2.17-9l-.55-.17-3.11,5c-.64-3-1.18-4.83-1.39-6.7-.68-6.09-.94-12.26-2-18.28A7.76,7.76,0,0,0,21,106.06a18.86,18.86,0,0,0-8.28-.87c-5.47.43-7.77,2.73-8.2,8.11a60.07,60.07,0,0,0-.07,12.43C6.29,140.1,4.35,142,22,141.79A9.54,9.54,0,0,0,23.65,141Zm389.54-3.75c11.17,4.5,19.4.49,19.94-8.87a61.37,61.37,0,0,0-.4-13.42c-.62-3.76-1.68-9.73-3.94-10.47-4.79-1.57-10.49-.45-15.82-.22-.66,0-1.66,1.27-1.83,2.09-1.75,8.12-1.19,16.24-.09,24.54a126.67,126.67,0,0,0,8.91-10.2,5.26,5.26,0,0,1,3.27-1.46,2.5,2.5,0,0,1,1.81,1.68,5.86,5.86,0,0,1-1.21,3.23C420.43,128.49,416.9,132.71,413.19,137.26Z"/><path class="fill-current" d="M384.53,253.38c-.55-8.5-1.19-17-1.64-25.51-.64-11.75-.76-23.55-1.86-35.25a13.18,13.18,0,0,0-10.78-11.74c-9.85-2.08-19.88-4.37-29.87-4.59Q279,175,217.53,175q-53.17,0-106.37,1.25c-13.74.33-27.45,2.22-41.15,3.66-6,.63-10.82,3.79-12.85,9.65S53,201.21,52.57,207.17c-1,14.76-1.41,29.59-1.26,44.38.15,13.44,2,26.69,6.83,39.49,3.43,9,9.57,14.38,18.82,15.65,14.29,2,28.67,3.38,43,4.88,36.51,3.81,73.13,2.13,109.71,2,26.61-.12,53.25-.67,79.83-2.05,15.71-.82,31.31-3.63,47-5.57,10.65-1.33,16.88-8.45,22-16.94,1.09-1.8,2-3.71,3.64-6.74a19.47,19.47,0,0,1,0,3.46c-3.64,13.5-16.42,24.2-30.33,26.05a712.69,712.69,0,0,1-95.53,6c-35.27-.09-70.56,1.47-105.8.56-24-.62-48-3.89-71.91-6.66-15.64-1.81-24-11.64-26.77-29.16s-2.75-35.65-3.42-53.53a185.89,185.89,0,0,1,1.07-26.37,48.11,48.11,0,0,1,4.21-14.21c3.57-8,10.34-11.68,19-12.38,46.81-3.77,93.72-4.15,140.64-4.16,31.6,0,63.21-1,94.79-.6a543.83,543.83,0,0,1,57.17,3.93c13.61,1.61,20.28,9.75,20.73,23.71.59,18.14.15,36.31.15,54.46Z"/><path class="fill-current" d="M146.29,183c52.6-.62,105.2-1.34,157.81-1.8,15.31-.13,30.63.38,45.94.77a33.79,33.79,0,0,1,8.28,1.55c3.66,1,5.95,3.24,5.84,7.51-.14,5.29.13,10.59.19,15.88,0,3.91-2.06,5.84-5.86,5.9-9.62.15-19.25,0-28.87.39-4.75.18-9.46,1.55-14.21,1.71-17.78.61-35.58,1.2-53.37,1.33q-46.44.32-92.88,0c-18.29-.12-36.57-1-54.86-1.19-10.78-.11-21.56.55-32.35.64-6.45.06-9-2.13-9.63-8.67a91.77,91.77,0,0,1,.06-16.74c.15-1.62,2.53-4,4.22-4.34a126.53,126.53,0,0,1,20.73-2.7c16.31-.38,32.64-.12,49-.12Zm180.86,3.3H109.77v26.49l217.38-1.52ZM76.93,210.15h27.26c0-6.92.16-13-.15-19.13-.06-1.11-2.05-3-3.15-3-8,0-16.1.44-24,.73Zm255.54-22.7v22.23c8.19-.5,16-.84,23.74-1.56,1.23-.12,3.23-1.91,3.3-3,.34-5.57.15-11.18.15-17.65Z"/><path class="fill-current" d="M246.33,266.86c2.08,13-13.54,27.78-26,27.4-16.13-.5-28.83-11.51-29-26.1-.19-15.69,12.05-29,26.71-29.22C236.26,238.71,247.56,252.83,246.33,266.86Zm-19.46,9c2.95-6.85,5.5-12.74,8-18.63,2.29-5.32,1.76-6.54-4.23-9.45-2.79,6.27-5.59,12.54-8.55,19.18Zm-15.49.88c1.64-4.49,4.34-8,3.61-10.59-1.74-6.08-5.11-11.7-7.81-17.51l-1.53-.21c-1.08,2.38-3.58,5.21-3,7.06C204.84,262.35,208,268.87,211.38,276.76Zm7.83-16.91,6-15.42-12.45.87C215,250.43,216.82,254.49,219.21,259.85Zm-.15,15-5.58,12.64h12.69Zm20-11.16q-1.92,4.77-3.86,9.54t-3.74,9.29C238.65,278,241.59,271.87,239,263.71ZM208.27,285l-9.6-21.52C197.26,273.79,200.21,280.29,208.27,285Z"/><path class="fill-current" d="M91.6,300c-17.31.9-33.2-13.4-32.82-31.51.41-20,7.52-33.38,30.18-35.19,17.11-1.37,36,15.47,36.08,34.47C125.16,285.5,110.91,299.67,91.6,300Zm-2.69-60.13c-15.32-.1-26.51,12-26.56,28.82-.05,15,11.74,25.87,28.08,26.14,14.89.25,26.34-14.5,26.52-27.73C117.13,253.6,102.93,239.93,88.91,239.85Z"/><path class="fill-current" d="M371.25,245.23c2.42,4.93,5.86,9.62,7.05,14.83,2.76,12.09-5.2,29.44-15.35,35.62-10.81,6.58-27.21,5.37-37.77-4-9.58-8.54-13-19.67-10-32.54,3.33-14.35,13.72-24.69,28.16-26.61,4.52-.6,9.29.71,14.31,1.18-3.26,6.16-7.62,5.93-12.46,5.87-7.48-.09-13.45,3.83-17.65,9.78-5.9,8.38-9.76,24.43,2,36.13,5.61,5.6,12.69,6.91,20.14,6.92,21,0,31.12-22.37,22.06-41.83-.69-1.48-1.37-3-2.06-4.43Z"/><path class="fill-current" d="M346.6,242.87c12.62,0,25.25,11.39,25.21,22.83,0,12.5-11.74,23.91-24.32,23.71-12.28-.19-23-10.49-23.2-22.23C324.11,254.59,334.84,242.9,346.6,242.87Zm-1.26,42c14.67-1.31,20.91-6.51,21.7-18.94.62-9.85-9.37-18.81-19.63-19.36s-17.91,10.73-18.13,18.37C329,275.62,336.51,284.86,345.34,284.84Z"/><path class="fill-current" d="M177.56,147.16c-2,6.34-2.32,6.94-7.77,3.72-7.44-4.39-15.26-5-23.47-4.87-23.45.26-46.89.47-70.34.43a155,155,0,0,1-19.34-1.56c-8.68-1.12-13-5.76-12.26-14.52a149.62,149.62,0,0,1,4.32-27c4-14.86,8.9-29.49,13.77-44.11C68,42.72,81,35.29,97.09,32.18c24.65-4.77,49.41-8.52,74.6-9.13,19.58-.48,39.17-1.4,58.72-2.58,24.9-1.5,49.38,2.33,73.93,5.27a408.28,408.28,0,0,1,40.74,6.68c11.34,2.54,20,9.77,25.27,20.27a207.64,207.64,0,0,1,20.88,73.22c1.06,11.06-3.9,16.55-14.94,17.11-15.43.77-30.88,1.29-46.32,1.8-2.52.09-4.24.22-5,3.33-1,3.74-3.26,4.8-7.1,2.36-4.91-3.12-9.6-5.76-16.46-5.13-20.86,1.88-41.83,3-62.76,3.28-18.92.27-37.86-.95-56.79-1.5C180.51,147.12,179.19,147.16,177.56,147.16Zm-48.8-23.83c12.16,5.29,22.93,10.06,33.78,14.62,3.29,1.38,6.83,3.18,10.24,3.13,39.57-.55,79.14-1.42,118.72-2.23a45.4,45.4,0,0,0,5-.87c-9.92-4.57-18.47-8.54-27.05-12.42-1.8-.81-3.74-1.77-5.64-1.81q-22.65-.48-45.32-.56c-5.81,0-11.62.56-17.43.67a23.27,23.27,0,0,1-4.93-1v-1.61c15.05-4.19,30.72-4.67,46.12-6.48,15.83-1.86,30.82,3.31,46.12,5.74l-.12,1.88-10.11.87c2.57,1.24,4.24,2.16,6,2.89,6.9,2.84,14,5.23,20.68,8.54,5.11,2.53,10.05,3.86,15.75,3.07A103.77,103.77,0,0,1,334,137c13.29-.11,26.58,0,39.86-.11,7.78,0,11.2-3.61,10.21-10.65A251.81,251.81,0,0,0,363.7,56.32c-2.39-5.23-7.23-9.88-12-13.39-8.82-6.53-19.82-7.44-30.28-8.81-19.75-2.59-39.57-4.9-59.43-6.34-13-1-26.15-.18-39.46-.18-.56,5.09-1,9.06-1.44,13,2.78-.17,4.76-.32,6.74-.4,2.16-.08,4.33-.16,6.49-.13,6.66.08,8,1.48,8.71,8.71.8,8.48-.18,10.91-7.18,11.23-12.07.56-24.2-.09-36.31-.09-4.56,0-7.26-1.49-7.34-6.54-.14-8.25,1.19-10.5,7.16-11.15,4.73-.52,9.46-1.06,14.41-1.62-.3-4.16-.56-7.87-.84-11.75-1.15-.07-1.95-.21-2.75-.17-16.1.74-32.27.75-48.27,2.44-21.76,2.29-43.42,5.65-65.05,9C81.29,42.51,70.52,50.87,66.31,66.71,64.05,75.2,61,83.47,58.92,92c-2.93,12.07-5.59,24.22-7.76,36.44-1.23,6.93,1.08,9.86,7.84,10.46,11.73,1,23.52,1.81,35.29,2.06,17.47.36,35,.17,52.43.19,1.36,0,2.72-.2,4.07-.31a198.77,198.77,0,0,0-27.36-14.66c-4.42-1.93-9.57-3.6-14.25-3.3-15.06,1-30.05,3-45.07,4.49-1.75.18-3.53,0-6.5,0,13.63-12.64,69.46-14,87.33-5.11Zm92.65-66.15c3.63-.28,8.63-.4,13.51-1.19,1.56-.26,3.77-2.16,4-3.59.5-2.9,1.36-7.21-2.66-8-4.79-1-9.89-.65-14.84-.54-1.43,0-3.42,2.23-4.14,1.78-6.49-4-12.58,0-18.67,1-1.33.2-2.29,4.36-2.84,6.82-.12.56,2.14,2.29,3.39,2.41C206.13,56.44,213.1,56.71,221.41,57.18Z"/><path class="fill-current" d="M251.47,207.35q-.57-8.44-1.13-16.9l2.29-.15c2.22,5.51,1.07,11.25,1.09,16.91Z"/><path class="fill-current" d="M271.75,190.67v16.76l-1.62.15q-.54-8.33-1.09-16.65Z"/><path class="fill-current" d="M158.27,207.28v-15.9l1.51,0v15.8Z"/><path class="fill-current" d="M128.18,207.65V191.44l1.33,0v16.12Z"/><path class="fill-current" d="M203.34,191.08v16.38l-1.37,0V191.2Z"/><path class="fill-current" d="M241.05,207.26c-2.1-2.88-2.54-10.56-.92-15.8C242.45,194.11,243,202.72,241.05,207.26Z"/><path class="fill-current" d="M191.65,190.39v16.38C188.83,204.08,188.47,194.21,191.65,190.39Z"/><ellipse class="fill-current" cx="165.64" cy="199.41" rx="0.81" ry="11.46"/><path class="fill-current" d="M294.85,206.83c-.3-5.47-.61-11-1-17.15,3.45,2.89,4.09,9.75,2.35,16.92Z"/><path class="fill-current" d="M177.43,207.19V191.38H179v15.68Z"/><path class="fill-current" d="M147.45,191.23v15.62l-1.37.06c-1.44-5.09-.66-10.29-.47-15.46Z"/><path class="fill-current" d="M318,206.46V190.83C320.61,193.15,321.2,200.62,318,206.46Z"/><path class="fill-current" d="M290.25,190.65v15.56l-1.22,0V190.82Z"/><path class="fill-current" d="M312,206.6V190.38h1.48v16.31Z"/><path class="fill-current" d="M285.11,190.41l-1,16-1.35,0v-16.1Z"/><path class="fill-current" d="M183.56,206.51V190.77C186.56,194.59,186.66,201.76,183.56,206.51Z"/><path class="fill-current" d="M301.92,190.2v16h-1.44v-16Z"/><path class="fill-current" d="M136.11,191.41v15.71C133,203.21,132.74,195.74,136.11,191.41Z"/><path class="fill-current" d="M141.75,191.22V207l-1.49,0C140,201.67,138.6,196.39,141.75,191.22Z"/><path class="fill-current" d="M152.24,206.47l-1-14.95,2.21-.09v15Z"/><path class="fill-current" d="M257.76,207.36v-16.2l1.23,0v16.2Z"/><path class="fill-current" d="M306.71,207.15V190.59l1-.07V207.1Z"/><path class="fill-current" d="M124.29,191.14V207.3H123V191.16Z"/><path class="fill-current" d="M244.67,207V191.12h1.17v16Z"/><path class="fill-current" d="M276.55,206.76V191.12h1.29v15.64Z"/><path class="fill-current" d="M116.78,206.86V191.78l1.34,0V207Z"/><path class="fill-current" d="M207.52,207.12V191.64l1.34,0v15.47Z"/><path class="fill-current" d="M227.49,206.42V191.63h1.33v14.83Z"/><path class="fill-current" d="M263.65,206.26v-15h1.26v15Z"/><path class="fill-current" d="M233.51,206.84V191.15l1.19,0v15.68Z"/><path class="fill-current" d="M172.94,191.11v15.8l-1.27,0V191.13Z"/><path class="fill-current" d="M196.58,191.8v15.29h-1.17V191.69Z"/><path class="fill-current" d="M88.86,289.92c-12.28.17-22.38-9.27-22.51-21.05-.16-14.19,9.62-25.41,22.32-25.58,13.41-.19,23.39,9.8,23.54,23.57C112.36,281.19,103.75,289.7,88.86,289.92Zm1-42.84-.6,1.23c-13.11-.43-19.38,12.44-17.75,22,1.41,8.29,6.16,13.85,14,16.52,7,2.38,12-1.59,16.68-6.12.84-.81,2-1.49,2.41-2.48,1.7-4.68,4.72-9.6,4.25-14.11-.41-4-4.31-8.12-7.65-11.08C98.09,250.3,93.68,249,89.83,247.08Z"/></g></g></svg>
