<svg xmlns="http://www.w3.org/2000/svg" viewBox="0 0 60.94 61.02" 
          stroke="currentColor"

><title>Cursos</title><g id="Capa_2" data-name="Capa 2"><g id="Capa_7" data-name="Capa 7"><path class="cls-1" d="M49.65,35.09c-1-1.62-1.76-2.28-1.76-2.93,0-1.06.24-2.72.89-3s2.3.16,3.13.8a27.91,27.91,0,0,1,3.38,3.64,5.94,5.94,0,0,1,.82,1.05c1.46,2.69,3,5.33,4.28,8.12.72,1.59,1.15,3.51-1.47,4.07l-.3-4.19-8.4,7.21.39.67c.81,0,1.79-.29,2.41.06,1.07.6,2.35,1.44,2.72,2.47A3.33,3.33,0,0,1,54.48,56a35.36,35.36,0,0,1-16.6,5c-2.17.12-3.67-1-3.54-3.07A3.84,3.84,0,0,1,37,55.35c4.32-.58,6.7-2.48,6.45-7.15-.17-3.15,1.87-4.59,4.71-5.09,3-.54,3.91-1.9,1.91-4.49-6.23.36-11-2.31-15.36-6.89,3.35-1,4.69,6.11,8.52,1.5l-4.91-5.51c5.37,2.51,7.08,4.91,5.62,8.79Zm-.72,12.18c-4.2-.3-3.56,2.49-3.72,4.28-.25,2.89-.59,5.18-4.44,4.42a6.55,6.55,0,0,0-3.26.61c-.61.23-1,1-1.54,1.45.65.44,1.44,1.39,1.94,1.26,5.14-1.36,10.24-2.87,15.32-4.45.41-.12.57-1,.85-1.6-.66-.26-1.52-.92-1.93-.71a29.85,29.85,0,0,0-3.8,2.75l-1.45-1.8Z"/><path class="cls-1" d="M32.38,29.67,0,2.52l.61-.73L33.07,28.86Z"/><path class="cls-1" d="M13,0,36.72,24.87l-.75.72Q24.15,13.13,12.32.67Z"/></g></g></svg>
