<svg xmlns="http://www.w3.org/2000/svg" viewBox="0 0 63.67 59.35"><title>Kitecamp</title><g id="Capa_2" data-name="Capa 2"><g id="Capa_7" data-name="Capa 7"><path class="fill-current" d="M15.61,26.9l2,2.62,3.18-2.7-1.37,4.64C24,32.28,28.5,33.12,33,33.79c.51.08,1.26-.78,1.74-1.34A6.75,6.75,0,0,1,37,30.3c-1.51,4.7,1.27,7.92,2.92,11.31,2.68,5.49,5.68,10.82,8.85,16.77l2.49-3.57c1.14,2.66,0,4.49-2.82,4.5-9,0-18,0-26.95,0L4,59.32c-3.13,0-3.68-.58-4-5.07l3.21,3.91a18.71,18.71,0,0,0,1.84-2.5c3.68-7.31,7.48-14.57,10.83-22C16.64,31.94,15.77,29.54,15.61,26.9ZM46.47,57.7c-3.66-7.3-7-14-10.45-20.65a4.19,4.19,0,0,0-2.66-1.51c-4-.92-8.08-1.68-12.14-2.47a17.62,17.62,0,0,0-2.5,0c4,8.09,7.8,15.7,11.67,23.26a2.88,2.88,0,0,0,2.07,1.32C36.92,57.76,41.38,57.7,46.47,57.7Zm-40.3-.43c6.48,1.32,6.64,1.22,8.24-4.33.95-3.32,1.93-6.62,2.9-9.93a75.35,75.35,0,0,1,4.12,10.65c1.6,4.66,2,4.84,7.44,3.49l-11.1-23Zm8.34.2H21C19.91,54,18.93,51,17.66,47.1Z"/><path class="fill-current" d="M55.13,19.29c-1.42-3.93-2.68-7.92-4.33-11.75-.89-2.07-2.61-2.55-4.59-.86A10.28,10.28,0,0,1,42.53,9c-1.12.3-2.48-.27-3.73-.46.19-1.21,0-2.68.64-3.59C43.5-.89,53.61-1.69,58.93,3.25c5,4.66,6.26,13.67,2.73,19.57C60.44,24.87,59,26.63,56.33,26c-2.92-.75-2.12-3.26-2.17-5.31,0-.34,0-.67,0-1Zm6.58-1c2-10.49-5.3-18.7-14.29-15.95,5.64,3.72,8,9,8.27,15.58Zm-7,1.25c1,2.18,1.35,4.5,2.18,4.67,2.58.53,3.36-1.72,4.25-4.16Zm-7.88-15C44.08,2.06,41.62,3.25,40.67,8Z"/><path class="fill-current" d="M45.71,30.35c-.6,1.53-1.18,3.08-1.87,4.57,0,0-1.21-.45-1.86-.7l2.4-4.49Z"/><path class="fill-current" d="M38,50.14c-6.4.89-8-.55-9.12-7.75C34.45,41.27,35.09,41.8,38,50.14ZM30.38,43.9c1.25,2.53,1.26,5.72,5.31,4.61C34.78,46.05,34.61,43.14,30.38,43.9Z"/></g></g></svg>
