<svg xmlns="http://www.w3.org/2000/svg" viewBox="0 0 102.09 125"><title>Mochila</title><g id="Capa_2" data-name="Capa 2"><g id="Capa_7" data-name="Capa 7"><path class="fill-current" d="M13.9,26.37c-6-2.82-9-12.56-5.36-18.76C10.6,4.05,12.93.34,17.66,0c2-.14,4,.65,6,.9C28.9,1.6,34.2,2.84,39.46,2.69A70.44,70.44,0,0,1,60.87,4.93c5,1.37,10.57.54,15.88.81,3.81.19,7.8-.09,11.37,1,6.59,2,10.38,10,8.66,16.78S94.16,31.68,89,35.9c4.21,4.78,4.47,10.89,4.92,16.69A72.56,72.56,0,0,0,100,76.49c1.6,3.66,2.84,7.28.82,11.35-.6,1.21.15,3.11.36,4.68.27,2.14.77,4.26.91,6.41.42,6.39-6.37,12.7-12.65,11.62-2.36-.4-4.6-1.51-6.89-2.31-.4,1.51-.72,3.21-1.3,4.82a9,9,0,0,1-5.92,5.61,44.08,44.08,0,0,0-7.74,3.6A23.62,23.62,0,0,1,56.27,125a171.17,171.17,0,0,1-21.34-1.37,84.49,84.49,0,0,1-12.82-3.08c-3.51-1-6.88-2.53-10.41-3.42-6.19-1.57-8.37-6.23-10.07-11.69-3.13-10-1.3-19.62,1.68-29.29,1.76-5.7,2.93-11.59,4.15-17.44.46-2.21.87-4.48-1.07-6.62-.76-.84-.55-2.93-.21-4.32,1.16-4.73,2.4-9.47,4-14.08C11,31.18,12.57,28.91,13.9,26.37ZM87.82,55l-.89,6.06.68.09,1.61-2c-.53,2.06-.84,3.32-1.16,4.58l.38.11,1.77-3,.32.15-1.68,7,.63.16,1.1-2.94.58-.06.21,1.81,1.07-.75V56.22h-.52l-.35,4.12-3.15-20.6.93.73.36-.44L85.48,36.5l1.58,7.69.91-.3c-.21,3.4-.41,6.6-.61,9.79ZM25.12,35.13c0-4.38,3-7.13,5.83-10.21A5.85,5.85,0,0,0,25,27.42a36.73,36.73,0,0,0-4.31,7.23,76.56,76.56,0,0,0-5,24.39l2.88.36c.94-5.17,1.76-10,2.73-14.91C22,41.1,22.37,37.55,25.21,35c-1.52,7.17-3.05,14.33-4.63,21.81l17.81,2.63C40,47.59,40.51,35.57,50.18,26.62c-3.67-.38-7-.82-10.43-1S33,24.71,30.58,28C28.83,30.46,26.94,32.77,25.12,35.13Zm36.7,75.8c.57.3,1.39.45,1.64.91,1.13,2,2.09,4.14,3.46,6.94,0-3.21,0-3.17,2.51-5.18a18.33,18.33,0,0,0,2.12-2.51c-7.09-1.78-8.19-3-8.36-10.2-.14-6.2-.13-12.4-.1-18.6,0-3.87.69-4.6,4.55-5.4.82-.18,1.68-.24,2.49-.46,2.34-.63,4.68-1.26,7-2,1.31-.41,1.85-1.2,1.59-2.77A45.07,45.07,0,0,1,78.27,65c-.06-4.29,0-8.57,0-12.86l-1-.17v6c-2.13-4.4-1.72-6.5,1.21-7.77-.74-2.81-1.49-5.68-2.28-8.71-4.77,2.4-9,1.23-13.46.2-2,4.72-.14,9.42-.46,14C62,60.49,62,65.3,61.52,70.06c-.48,4.52-1.46,9-2.22,13.49l.64.09.72-1-.49,0-2.43,24,.77.38.87-1.62.32.27c-.64,1.21-1.28,2.41-2.23,4.22l2.71-2.17c-.3,1.33-.51,2.21-.7,3h2.4L60.63,112l.55.42ZM11.51,58.69l-.43-.43A44.9,44.9,0,0,0,9,63.57c-1.82,7-3.62,13.94-5.21,20.95A42.14,42.14,0,0,0,5,107.11a4.48,4.48,0,0,0,1.18,1.66c2,2,4.12,3.86,6.18,5.78.2.2.46.6.59.56,2.79-.86,4.41,1.5,6.6,2.29a62.67,62.67,0,0,0,25.75,3.93c-.13-.63-.23-1.15-.2-1l6.07,1.92c-.2-.81-.32-1.29-.27-1.08,1.42.38,3.53,1.67,4.6,1.08,1.6-.87,1-3,.19-4.76A46.73,46.73,0,0,1,54,112.2l.42-.11,3.45,8.41c.45-1,.63-1.25.58-1.37-3.27-7.8-3.12-15.93-2.21-24.09.93-8.4,2.2-16.77,3.09-25.18a91.93,91.93,0,0,0,.05-9.66,27,27,0,0,0-3.76,2,38,38,0,0,0-3.35,3.12L51.93,65l.91-2.11-2.17-.11.47.56-2,2.23c.12-1.45.16-2,.22-2.67l-2.72,1.36c1.51,4.35-1.84,7.7-3.75,11.46-1.77,3.49-4.42,4.1-7.48,2.27a64.47,64.47,0,0,0,1.46-7.35c.13-1.48-.81-3-.79-4.55,0-3.64-1-4.4-4.33-2.82l-1.07-2-1.88,1.35v-.75c-.93-.1-1.87-.21-2.81-.29s-2.06-.13-3.22-.19a26.43,26.43,0,0,1-1.61,5.25c-.91,1.76-2.46,3.17-3.63,4.81-2.29,3.17-4.77,3.69-7.57,1.37.46-.88,1-1.76,1.39-2.7.5-1.21,1.28-2.48,1.24-3.7A74.52,74.52,0,0,0,11.51,58.69ZM74.86,31.37c2.09,3.09,5.26,3.29,8.28,3.22a11,11,0,0,0,6-1.69c5.7-4.2,6.86-15.55,2.46-21C89.54,9.27,88,9.13,85,10.4c-2.3,1-2.7,3-3.44,4.81-1.68,4.15-3,8.35-.6,12.73a3.75,3.75,0,0,0,4.93,2C89.35,28.86,91.51,25,91,20.29c-.26-2.29-.44-4.94-3.35-5.55-1.74-.37-3.8,2.29-4,5.4-.08,1.55.71,3.16,1.24,4.69,0,.17,1.41.14,1.44,0,.39-1.55.65-3.14.92-4.71a2.5,2.5,0,0,0-.58-.24l-1.34,2.31c-.66-2.18-.48-3.91,1.49-4,.82-.06,2,1.71,2.61,2.84.35.62,0,1.65-.08,2.49-.2,2.29-1,4.11-3.71,4s-3.76-2.07-3.76-4.18A33.93,33.93,0,0,1,83.2,16c.39-1.71,1.17-3.52,3.28-3,1.77.4,4,1.13,4.94,2.48,2.91,4.12,2,8.59-.26,12.71-2.41,4.34-6.8,4.23-10.67,4.58-6.14-9-4.82-16.92,2.42-24.4-3.59,0-7.13,0-10.67,0-1.47,0-3.4-.3-4.33.49-3.34,2.84-4.78,6.74-5.46,11.1-.49,3.16.86,5,3,6.77.22-.88.44-1.78.67-2.68l.72.12L67.72,27c.48-1.16.74-1.79,1.09-2.66.75,1.6,1.37,2.94,2,4.28l.46-.11-.48-5.67.3,0,2.42,5.45c.12-2.38.21-4.25.34-6.8C75,25.44,76,28.68,77,32ZM32.25,16l1.28,4.91.93-3c.44,1,.87,1.89,1.16,2.53,1.35.12,2.47.2,3.58.31.95.09,1.9.22,3.11.37.54.14,1.41.33,2.25.6s1.72.63,2.58.93c1.47.51,2.93,1.07,4.43,1.47a5,5,0,0,0,1.74-.16l-.49-2.84c2.8.2,3.2-.05,3.35-2.44.28-4.59,2.27-8.39,5.48-11.86L57.88,5.39l.81,1.36C53.82,6,49,4.64,44.05,4.57,35.67,4.44,32,7.06,31.16,16.83c0,.23.23.48.44.89Zm53.37,86.8c4.67,2.31,9.82-.08,10.11-5.3.2-3.65.72-7.63-3-10.26a2.71,2.71,0,0,1-.79-1.46c-2.86-10.74-7.47-21-8-32.37-.2-4.24-1.63-8.45-2.78-12.59-.34-1.21-1.65-2.15-2.52-3.22.38,4.25,1.46,8,1.82,11.76.59,6.17.69,12.39,1,18.59.17,2.87.55,5.57,2.45,8.1a12.73,12.73,0,0,1,2.34,11.41,15.33,15.33,0,0,0-.63,3.73C85.57,94.89,85.62,98.63,85.62,102.77ZM45.9,60.18c6.84,1,8.74-.15,10.5-6.22,1-3.41,1.67-6.91,2.58-10.35,1.5-5.64,4-10.36,10.58-11.3.1,0,.16-.27.61-1.09-3-.88-5.73-1.86-8.58-2.47-1.26-.27-3.09-.3-3.94.42-2.38,2-5.06,4.16-6.4,6.85C47.51,43.51,46.78,51.81,45.9,60.18ZM24.57,23.08c.15-3.22-.16-6.54.55-9.63s2.45-6,3.76-9.08C23.3,1,17.68.72,14.33,3.78c-4.47,4.1-5.93,10.47-3.5,15.44q-.2-3.55-.38-7.08h.33c.46,2.47.92,4.93,1.45,7.73l1.31-1.69,1.57,2.36V16.42c.41.35.61.53.83.69,1.53,1.11,1.36,5.2,4.9,2.79l.88,1.33L20,23.08Zm44,65.23c-.1,6.42,2.42,12.48-.24,19.27,2.73,0,5.11.2,7.44,0,3.57-.36,8.13-5.12,8.31-8.49a6.63,6.63,0,0,0-.5-2l-.47.62-.39-.34c.31-2.39.64-4.92,1-7.52C75.34,93.54,71.54,93.22,68.61,88.31ZM24.79,25.18l-.64-.75L19.3,26.34c-.72.29-1.93.19-2.23.67a74.72,74.72,0,0,0-5.36,9.39C10.34,39.46,9.85,42.91,8.47,46c-.92,2-.92,3.68.39,5.13a51,51,0,0,0,5.24,4.4C16.09,44.23,16.64,33.4,24.79,25.18Zm42.79,54c.93,2.58,2.3,5.18,2.73,7.93s1.69,3.73,4.28,3.4a26.17,26.17,0,0,0,3-.49c7-1.71,8.06-3.53,5.78-10.22-.27-.8-.29-1.8-.8-2.37-.75-.83-2-2.08-2.76-1.9C75.56,76.58,71.34,78,67.58,79.17ZM56.13,26.9a31,31,0,0,0-4.08.93c-3.06,1.14-4.42,4-5.75,6.59C41.72,43.33,40.73,53.08,40,63.1l3.81.48c.14-1.72.21-3.22.39-4.7C45.62,47.4,46.14,35.58,56.13,26.9ZM67.5,107.26a9.66,9.66,0,0,0,.67-2.54c-.15-7.08-.3-14.16-.68-21.22-.06-1.08-1.27-2.1-1.95-3.15l-.86.42C65.93,89.54,64.43,98.55,67.5,107.26Zm16.41-1.19a10,10,0,0,0,10.83.54c1.05-.59,1.46-2.33,2.16-3.54-1.12.16-2.66-.08-3.28.56-2.94,3-5.93,1.38-8.89.63C84.5,104.78,84.23,105.37,83.91,106.07ZM60.14,21.43c.74-5.19,2.33-9.74,5.86-13.5-5.82,1.38-7.92,5.61-7.88,12.51l1-1.31Zm-27-17.1c-3.54,1.59-4.77,4.3-5.94,7.08-1.32,3.14-.16,5.77,2.16,9.1C27.77,14.06,31.11,9.61,33.18,4.33Zm5,64.79c1.72.1,3.49.48,5.07.11.53-.13.61-2.18.9-3.34C38.7,64.72,38.63,64.76,38.15,69.12Zm-24-8.1c-1.43,3.28-.92,3.78,4.37,4.33C20.61,62.39,20.17,61.34,14.14,61Zm23.45,15.6,1.39.75,4.38-5.64-4.43-.39C38.45,73.22,38,74.92,37.59,76.62Zm-25.36-5c3.06.55,4.15-.47,4.75-4.4l-2.75-.54C13.54,68.41,12.89,70,12.23,71.66Z"/></g></g></svg>
