<svg xmlns="http://www.w3.org/2000/svg" viewBox="0 0 52.77 35.67"><title>rental_1</title><g id="Capa_2" data-name="Capa 2"><g id="Capa_7" data-name="Capa 7"><path class="fill-current" d="M46.76,19.91c4-.05,5.77,1.26,6,4.38L48.35,23c1.39,2.8,1.58,5-.4,6.84-1-2.08-1.86-4-2.8-6.06-3.08,2.44-4.4,6.26-4,11L46,35l0,.69H2.92l-.06-.55c.81-.07,1.62-.2,2.44-.21,9.62,0,19.24-.08,28.85,0,1.85,0,2.6-.49,2.85-2.4a15.94,15.94,0,0,1,5.62-10.28l-6-1.13c1.19-2.25,2.92-2.77,7.29-1.79L41.2,15C43.33,14,45.68,15.9,46.76,19.91Zm-5,4.49c-2.45,2.58-3.36,5.72-3.8,9-.06.41.56.91.87,1.37.33-.37.85-.7.95-1.13C40.49,30.65,41.1,27.62,41.77,24.4Z"/><path class="fill-current" d="M19.12,33.29c-4.23,0-8.45,0-12.68,0-1.49,0-2.06-.47-2.05-2,.05-4.64-.09-9.28,0-13.92a4.39,4.39,0,0,1,1.35-2.91c3.81-3.2,7.79-6.18,11.63-9.34,1.22-1,2.07-.84,3.22.09,3.95,3.16,8,6.17,11.93,9.36a4,4,0,0,1,1.29,2.66c.12,4.72,0,9.45,0,14.17,0,1.61-.67,1.94-2.09,1.92-4.23-.07-8.45,0-12.68,0Zm-4-10.06c2.18,0,4,.06,5.78,0,1.56-.08,2,.65,2,2.09-.06,2.2,0,4.4,0,6.84,2.88,0,5.36,0,7.83,0,1.4,0,1.9-.5,1.88-1.89-.07-4.31,0-8.63-.07-12.94a2.59,2.59,0,0,0-.59-1.78c-4.26-3.4-8.58-6.71-13.06-10.18-4.27,3.39-8.43,6.67-12.55,10a2.15,2.15,0,0,0-.73,1.45c0,5,0,9.92,0,15.23,3,0,5.71.08,8.4-.08.43,0,1.08-1.11,1.12-1.73C15.23,28.1,15.14,26,15.14,23.23Zm1.38,1.28v7.35h4.95V24.51Z"/><path class="fill-current" d="M0,14.85,18.92,0l7.61,5.8c.24-1.56.41-2.67.61-3.95h4.77a47.18,47.18,0,0,1-.06,6,3.62,3.62,0,0,0,1.75,3.76C35.09,12.66,36.51,13.85,38,15l-.44.67a14.5,14.5,0,0,1-1.85-1.05c-5-3.9-10-7.75-14.8-11.79-1.49-1.23-2.46-1.08-3.83,0C12.2,6.75,7.3,10.59,2.41,14.44c-.58.46-1.23.82-1.85,1.23ZM28.17,3c-.66,4.17-.44,4.65,2.47,5.64V3Z"/><path class="fill-current" d="M19,17.12c-2.32.48-2.59-.75-2.69-2.65-.11-2.27.79-2.68,2.86-2.74,2.35-.08,2.47,1.07,2.52,2.85C21.71,16.64,21,17.53,19,17.12Zm-1-4.05-.78.77,1.84,2c.46-.51,1.3-1,1.31-1.52C20.37,12.33,18.94,13.05,17.93,13.07Z"/></g></g></svg>
