<svg xmlns="http://www.w3.org/2000/svg" viewBox="0 0 62.32 41.5">
<title>Viajes icono</title><g id="Capa_2" data-name="Capa 2"><g id="Capa_7" data-name="Capa 7"><path class="fill-current" d="M36.5,18.56c-.88,1-1.48,1.77-2.12,2.48s-1.14,1.23-2.22,2.39c-.25-2.74-.3-4.8-.68-6.8a4.22,4.22,0,0,0-1.56-2.56c-2.5-1.59-5.15-2.93-7.74-4.37-.06,0-.07-.14-.27-.62L54.82,0l.68.73c-4,7.93-8.09,15.86-12.28,24.07Zm6.17,4.94L53,3.6l-.49-.25L36.19,16.21ZM50.18,3.05l-.27-.65L24.06,9.62c2.72,1.49,4.85,2.75,7.07,3.82a2.56,2.56,0,0,0,1.93-.35C36.54,11.08,40,9,43.42,7,45.66,5.63,47.92,4.35,50.18,3.05ZM45,8.1l-.41-.61c-3,1.79-6,3.6-9,5.37-3.32,2-3.63,2.79-2.23,7.39a8.9,8.9,0,0,1,4.19-6.5C40.21,12.09,42.56,10,45,8.1Z"/><path class="fill-current" d="M24.9,17.32c-5.95-.17-10,2.06-12.89,6.31C10.37,26,9,28.56,7.42,31A14.27,14.27,0,0,1,0,37.18a4.92,4.92,0,0,1,.61-1c2.31-2.5,4.79-4.87,6.94-7.51,1.66-2,2.76-4.55,4.38-6.63,4.11-5.28,10.8-7.14,16.26-4.53-1.07.43-2,.76-2.89,1.17A7.86,7.86,0,0,0,22,30.58c2.91,4.19,7.34,5.86,12,7a66.57,66.57,0,0,0,21.12,1,3.25,3.25,0,0,1,2.22.5,3.9,3.9,0,0,1-1.13.46c-8.13.7-16.29,1-24.16-1.5A27.34,27.34,0,0,1,22.89,33c-5-4.24-4.5-10.3.62-14.43C23.81,18.35,24.08,18.07,24.9,17.32Z"/><path class="fill-current" d="M28.61,25.93,23.33,30l-.51-.56,6.09-5.54c2.25,7,8.26,8.54,14.28,9.72,5,1,10,1.4,15.05,2a15.23,15.23,0,0,1,4.08.79c-.37.16-.73.47-1.09.46-8.14-.3-16.22-1.14-24-3.81C33.64,31.88,30.38,30,28.61,25.93Z"/><path class="fill-current" d="M12.08,26.39c.88,10.52,9,12.75,17.57,14.88-3.58,1.08-10.82-1.8-14.44-5.36A10.24,10.24,0,0,1,12.08,26.39Z"/></g></g></svg>
