<svg xmlns="http://www.w3.org/2000/svg" viewBox="0 0 155.92 104.41"><title>viento I</title><g id="Capa_2" data-name="Capa 2"><g id="Capa_7" data-name="Capa 7"><path class="fill-current" d="M69.24,61.19H6.78c-1.5,0-3.19.26-4.43-.35S0,58.69,0,57.6s1.49-2.58,2.63-3c1.67-.55,3.62-.31,5.45-.31,41.14-.05,82.29-.16,123.43-.07,7.05,0,12.21-2.69,15.77-8.59a14.4,14.4,0,0,0-1-16.82c-4-5.25-9.88-7.38-15.86-5.77-6.23,1.69-9.66,6.05-10.95,12.81-.35,1.82-2.39,3.32-3.66,5-1-1.78-2.85-3.56-2.86-5.35,0-9.48,7.25-17.32,17.56-19.48,8.66-1.81,18.92,3.35,22.93,11.53a23,23,0,0,1-20.69,33.57c-21.16.15-42.31,0-63.47,0Z"/><path class="fill-current" d="M47.31,45.2q-16.49,0-33,0c-2.65,0-5.54-.18-5.6-3.46-.06-3.47,3-3.36,5.54-3.36,21.49,0,43,.06,64.47-.09,12.87-.08,20.47-11.24,15.58-22.52a15.19,15.19,0,0,0-16-8.55,14.91,14.91,0,0,0-12.5,12.54c-.29,2.49.1,5.61-3.58,5.27s-3.29-3.63-3-6.24C60.53,7.32,71.82-1.48,83,.21c13,2,21.84,13.92,19.43,26.18A22.73,22.73,0,0,1,79.8,45.21c-10.83.12-21.66,0-32.49,0Z"/><path class="fill-current" d="M75,69.47c12.33,0,24.67-.12,37,0,7.84.1,14.63,5.86,16.58,13.55s-.91,15-7.49,19c-9.71,6-23-.27-24.24-11.63-.18-1.62,1.46-3.44,2.25-5.17,1.15,1.34,2.91,2.5,3.33,4,1.53,5.61,5.18,9,10.4,9a10.19,10.19,0,0,0,9.93-8.22c1.11-5.54-1.59-11.29-6.68-13a27.48,27.48,0,0,0-8.81-1.27c-22,0-44,.12-66,.2-1.5,0-3.23.41-4.44-.19-1.55-.77-2.67-2.38-4-3.63,1.38-.89,2.75-2.52,4.14-2.54C49.7,69.39,62.37,69.48,75,69.47Z"/><path class="fill-current" d="M18.32,21.83c3,0,6-.35,8.93.15,1.55.27,2.85,2,4.27,3.11-1.35,1.18-2.64,3.28-4.06,3.38a138.39,138.39,0,0,1-17.87,0c-1.35-.09-2.55-2.3-3.82-3.53,1.37-1.05,2.62-2.74,4.13-3,2.73-.5,5.61-.14,8.42-.14Z"/><path class="fill-current" d="M63,85.88c2.82,0,5.71-.36,8.42.16,1.31.25,2.31,2.15,3.44,3.31-1.13,1-2.23,2.74-3.41,2.8A129.9,129.9,0,0,1,55,92.06C53.54,92,52.18,90,50.75,88.87c1.43-1.07,2.73-2.73,4.3-3.05,2.55-.51,5.27-.14,7.92-.14Z"/><path class="fill-current" d="M45.4,25.57c-2.43,1.47-4,3.14-5.13,2.9-1.3-.26-3.1-2.3-3.06-3.51s2.17-3,3.43-3.07S43.16,23.73,45.4,25.57Z"/><path class="fill-current" d="M78.07,89c2.35-1.6,3.65-3.15,5-3.2,1,0,3,2,2.92,2.89-.22,1.35-1.77,3.29-3,3.45S80.42,90.62,78.07,89Z"/></g></g></svg>
