<svg xmlns="http://www.w3.org/2000/svg" width="24" height="24" viewBox="0 0 189.61 180.87" stroke="currentColor" stroke-width="2" stroke-linecap="round" stroke-linejoin="round"><g id="Capa_2" data-name="Capa 2"><g id="Capa_7" data-name="Capa 7"><path d="M21.86,147A23.59,23.59,0,0,1,4,140.71c-2-1.84-2.71-5.1-4-7.71l7.87-2.46c.15-.86-.13-4,1-4.71,1.81-1,5.15-1.3,6.87-.28,7.1,4.25,11.21,1.15,16.37-4,9.06-9.13,15.91-19.05,18.1-31.89.33-2,1.25-3.8,1.66-5.74C54.77,70.36,62.51,62,76.61,60.22c1.62-.2,3.89-.44,4.61-1.51,1.29-1.92,2.87-5,2.14-6.68-2.18-4.92-5.5-9.33-8.23-14-5.24-9-7-18.57-1.58-28,5-8.67,13.66-10.8,22.93-9.8,3.41.36,6.64,2.59,9.91,4.06,1.16.52,2.16,1.85,3.28,1.91,5.7.32,7.7,4.25,8.6,8.85,1.7,8.7-.12,16.76-5,24.24A88.85,88.85,0,0,0,106,52.18c-1.28,3-.3,6,3.34,7.11,3.34,1,6.71,2,10.11,2.73,7.25,1.65,12.27,6,14.79,12.84,2.86,7.8,5.51,15.69,7.74,23.68,1.66,6,4.28,11.1,8.82,15.33a37.86,37.86,0,0,1,5.37,5.89c4.71,6.78,9.93,10.75,18.42,5.62,1.46-.88,4.26.42,6.44.71-.33,2.23-.66,4.46-1,6.79.92-.39,2.24-1.42,3.55-1.41,2,0,4.46.22,5.66,1.41.76.77.21,3.94-.79,5.21-4.2,5.35-10,8.1-16.75,8.78-1.28.12-2.58,0-4.38,0a23.29,23.29,0,0,0,1.18,2c6.82,9.19,5,19.68-4.71,25.75a41.45,41.45,0,0,1-28.36,5.74c-12.42-1.85-24.58-5.46-36.9-8.09-2.54-.55-5.54-.84-7.92,0-15.54,5.26-31.13,9.91-47.82,7.72a53.48,53.48,0,0,1-9.72-2.12C17.23,172.64,13.13,161.74,21.86,147Zm94.26-17.26c0-1.67-.08-3,0-4.28.82-11.92,1.55-23.84,2.65-35.73.17-1.88,2.07-3.6,3.18-5.39a64.1,64.1,0,0,1,1,6.55c.09,1.62-1,3.62-.44,4.84,3.87,7.69,6.8,16.4,12.48,22.49,8,8.54,18.05,15.14,27.31,22.46,5.46,4.3,17.69,1.89,21.56-4.79-4.52,1.72-8.88,5.85-13.22,1.35-.87-.9,1.13-4.58,1.73-6.73a15,15,0,0,0-3.48,1.24c-3.79,2.17-6.6,1.67-9.41-1.94a114,114,0,0,0-11.11-12.14c-5.75-5.49-9-12.12-11.08-19.7-2-7.2-4.51-14.24-7-21.28A15.7,15.7,0,0,0,118.11,66c-2.11-.45-4.19-1.06-6.29-1.59-5-1.26-9.8-2.75-10.34-8.67H88.39c-2.27,6-2.84,7.3-9.87,8.26-13.36,1.82-20.23,9.54-22.8,22.1-.23,1.13-.8,2.2-1,3.34-2.49,14.52-9.93,26-20.62,36-8.16,7.63-7.76,8-18,4.19a5.23,5.23,0,0,0-1.32,0c.8.71,1.59,1.09,1.86,1.71.79,1.81,1.37,3.7,2,5.57-2.05.63-4.14,1.88-6.12,1.72-2.31-.18-4.52-1.59-7.42-2.72,6.83,7,15.45,9.11,21.53,4.74,9.3-6.69,19.22-13,26.85-21.38C61.33,110.76,69.17,101,66,87.5c-.2-.87,1-2.06,1.5-3.1a17.09,17.09,0,0,1,2.76,2.2A4.4,4.4,0,0,1,71,89c1,12.56,1.86,25.13,2.93,37.69.11,1.3,1,3.38,1.94,3.64A71.28,71.28,0,0,0,116.12,129.69Zm-44,4.19c-3.47,7.16-9.42,9.29-16.6,9.13a25.34,25.34,0,0,0-6,.22c-6.92,1.5-14.37,2.08-20.56,5.14-10.89,5.35-10.62,17.26.2,22.87a46.72,46.72,0,0,0,15.62,4.55c12.09,1.45,24-.67,35.33-4.75,17.6-6.32,35-13.16,53.21-20-2.37-.69-4.33-1.43-6.36-1.8a144.21,144.21,0,0,0-14.57-2.3c-2.23-.18-4.67.7-6.83,1.57-3.29,1.32-6.28,3.88-9.65,4.43A178.79,178.79,0,0,1,73.63,155c-9.14.36-18.3.22-27.45.13-1.35,0-2.69-1-4-1.49,1.29-.93,2.46-2.36,3.89-2.7,9.82-2.33,19.65-4.73,29.59-6.44a15.41,15.41,0,0,1,9.72,1.78c2.66,1.58,4.52,4.33,8.15,3,3-1.15,6.46-1.77,8.92-3.66,4-3,7.67-3.94,12.48-2.4,3.54,1.13,7.46,1,11.1,1.91,3.45.84,7.6,1.41,9.9,3.67,2.56,2.5,4.75,3.46,8.08,3.39,1.26,0,2.55,1.25,3.83,1.93a20.57,20.57,0,0,1-3.84,2c-1.06.32-2.32,0-3.48,0-14.13.41-26.59,6.1-40.3,12.24,16.93,5.83,32.8,9.87,49.52,6.91a35.39,35.39,0,0,0,12.42-4.83c8.42-5.34,8.38-15.33.2-21a18.86,18.86,0,0,0-7.14-3.39c-7.34-1.29-14.74-2.3-22.16-2.94-5.94-.5-11.1-1.81-14.42-7.35a4,4,0,0,0-3.54-1.32A79.77,79.77,0,0,1,72.12,133.88ZM107.4,24.17c-7.35-.55-13.79-.53-20-1.67-4.29-.78-6.11.79-6.73,4.32-1.21,6.92-.51,13.63,3.9,19.42,5.64,7.41,14.09,7.71,19.89.86C109.4,41.27,110.52,30.38,107.4,24.17Zm5.66,2.34,1.28-.07c0-2.72.2-5.46,0-8.16-.37-4-.38-8.44-6.65-7.32-.77.14-2.15-1-2.66-1.83-4-6.86-16.58-5.92-22.81-2-6.44,4-9.13,12.63-6.31,20.37C79,17.66,80,17.25,90.57,18.86c4,.62,8.44,1.1,12.27.1,5.63-1.46,7-1.4,9,4.09C112.3,24.19,112.67,25.36,113.06,26.51ZM35.18,140.3c7.91-.53,15.19-1,22.46-1.52,6.15-.42,10.46-3.07,11-8.85.81-8.25.21-16.64.21-25C62.52,121.31,48.28,130.1,35.18,140.3ZM154,140c-13.57-10.53-26.92-19.32-32.61-35.34-1.25,9.29-2.35,18.32.32,27.23a8.77,8.77,0,0,0,8,6.54C137.33,139.11,144.94,139.46,154,140ZM82.56,150.37c0-.75,0-1.5-.07-2.25l-9.86,1.11.13,1.14Z"/></g></g></svg>
