<svg xmlns="http://www.w3.org/2000/svg" viewBox="0 0 262.29 243.73"><defs><style>.cls-1{fill:#fff;}</style></defs><title>cuesta del viento line</title><g id="Capa_2" data-name="Capa 2"><g id="Capa_6" data-name="Capa 6"><path class="cls-1" d="M107.86,41.93c-1.16,1.12-2.36,2.19-3.45,3.37-1.61,1.74-3.14,3.55-4.7,5.34.06-2.44-.86-5.71.37-7.13,2.78-3.22-4.7-8.38,1.1-9,4.89-.54,5.2-4.3,7.82-6.25,3-2.23,5.64-4.82,9.79-8.42,1,4.2,2.67,7,2.07,9.23a232.92,232.92,0,0,1-7.71,22.49c-.39,1-3.11,1.81-4.44,1.48-.92-.23-1.92-2.64-1.79-4,.2-2,1.35-4,2.1-6Z"/><path class="cls-1" d="M239,176.81c-2.16-.73-4.08-1-5.51-2-1-.7-2-2.53-1.79-3.53a4,4,0,0,1,3.22-2.27c5.44.53,10.87,1.38,16.25,2.41,1,.19,2.61,1.9,2.46,2.6a7.5,7.5,0,0,1-2.54,4.38c-2.36,1.65-5.16,2.67-7.78,4,.1.67.19,1.34.29,2,3.92.38,7.84.73,11.75,1.16,1.78.2,3.76.18,5.24,1a4.53,4.53,0,0,1,1.69,3.64c0,1-1.57,2.82-2.32,2.76-6.54-.55-13.42-.38-19.48-2.49C233.84,188.12,233.89,184.72,239,176.81Z"/><path class="cls-1" d="M256.94,242.26c-7.4,3.16-17.1,1.17-22.16-5.21-1.52-1.9-2.47-5.46-1.74-7.6a9.08,9.08,0,0,1,6-5.16,22.91,22.91,0,0,1,20.47,6.77C263.42,235,262.1,240.05,256.94,242.26Zm-17.25-12.53c3.9,7.3,9.35,8.89,15.44,4.53Z"/><path class="cls-1" d="M46,36.26c1.63.38,3.44.3,4.38,1.16a6.73,6.73,0,0,1,1.6,4.2c0,.4-2,1.48-3.06,1.38a29,29,0,0,1-6.72-1.55c-3.57-1.23-4.24-3.85-3-7.2S43,27.91,41.08,24c-.22-.45.66-2,1.28-2.21,4.18-1.22,4-4.39,3.38-7.53-.5-2.74.38-3.86,3.07-3.44a69.7,69.7,0,0,1,9.78,1.84c1.24.38,2.06,2.16,3.07,3.3-1.29.73-2.52,1.86-3.9,2.09-1.55.27-3.24-.27-5.45-.53l-.94,3.82,6,5.56-7.74,2.52-.69-1C48,30.78,47.14,33.22,46,36.26Z"/><path class="cls-1" d="M180,71.85c1.44,1.3,2.86,2,3.25,3.07a6.65,6.65,0,0,1-.05,4.47c-.23.52-2.75.63-3.8.1a24.09,24.09,0,0,1-5.09-3.9c-2.76-2.55-2.51-5.17.07-7.75s6.17-4.55,5.88-9.08c0-.43,1.23-1.43,1.72-1.33,4.71.91,5.27-2.53,6.53-5.63.41-1,2.69-2.3,3.31-2a59.63,59.63,0,0,1,9.52,6.29c.93.76.81,2.81,1.57,5.89l-10-4.11-1.87,2.6c1.2,3.32,2,5.63,2.87,7.93l-7.74-1c-.1-.42-.19-.83-.29-1.25Z"/><path class="cls-1" d="M175.21,56.54c-6,1.12-11.43,2.8-16.94,3-6.19.22-7.89-3.59-4.6-8.65.45-.69,1-1.33,1.46-2,7.7-10.85,8.14-11.08,19.44-4.56,2.16,1.24,4.46,3.93,4.73,6.18C179.52,52.28,176.74,54.44,175.21,56.54Zm-13.73-4.48.7.83,9.38-3.22-6-3.1Z"/><path class="cls-1" d="M252,155.2l-4.84,1c-.07.62-.1,1.09-.19,1.55q-.63,3-1.28,6c-1.35-1.37-3.19-2.51-4-4.15-2.37-5.14-6-1.16-9.13-1.88.26,1.78,1,3.42.55,4.63a6.51,6.51,0,0,1-3.22,3.11c-.44.22-2.13-1.17-2.58-2.14a17.55,17.55,0,0,1-1.39-5.26c-.61-4.84,1-6.42,5.86-7.26,3.05-.53,6-1.89,9-2.78.85-.25,2.28-.55,2.64-.13,3.07,3.53,5.9,1.74,8.58-.31,2.47-1.89,3.62-.67,4.34,1.57a45.7,45.7,0,0,1,2.31,8.63c.18,1.57-1,3.3-1.61,5a25,25,0,0,1-3.58-3.37C252.69,158.33,252.53,156.89,252,155.2Z"/><path class="cls-1" d="M231.57,123.36c4-.71,8.05-1.69,12.11-2,1.8-.13,3.7,1.08,5.55,1.68-1.37,1.36-2.57,3.6-4.15,3.92-7.64,1.53-15.36,2.71-23.1,3.68-4,.5-5.42-1.68-3.3-5,5-7.94,13-11.54,21.74-13.85.76-.2,2.59.86,2.66,1.48a3.9,3.9,0,0,1-1.35,3.15c-3.41,2.17-7,4-10.54,6Z"/><path class="cls-1" d="M25.83,26.09c1.29-2.18,2.63-4.32,3.87-6.53s1.94-4.77,3.59-6.48c1.17-1.21,3.54-1.28,5.37-1.85.1,1.74.79,3.74.16,5.16A53.41,53.41,0,0,1,33,26.78a16.76,16.76,0,0,1-6.41,5.16c-4.52,2-9.32-1.36-8.65-6.15a48.66,48.66,0,0,1,4-12.66c.51-1.14,3.17-1.32,4.84-1.94.21,1.58.87,3.25.55,4.71-.72,3.25-1.92,6.4-2.92,9.59Z"/><path class="cls-1" d="M66,31.76c-.9-2.85-2.87-5.87-2.45-8.52.71-4.57,4-7.92,8.59-9.44.76-.25,2.6.48,2.74,1a6.49,6.49,0,0,1-.21,4.39c-1.13,1.92-2.95,3.44-4.5,5.16,5.69,4.18,6.37,6.94,3,13a45.87,45.87,0,0,1-6.06,8.43c-.91,1-4.13,1.52-4.48,1a7.66,7.66,0,0,1-1.35-5.37c.39-1.78,2.2-3.22,3.33-4.85s2-3,2.94-4.55Z"/><path class="cls-1" d="M195.56,86c1.25,1.19,2.63,1.94,3,3.05.49,1.37.15,3,.17,4.57-1.45,0-3,.42-4.3,0a13.28,13.28,0,0,1-4-2.85c-3.79-3.44-3.88-6.15,0-9.43q9.3-7.84,19-15.22c.95-.72,2.92-.08,4.42-.06-.19,1.79.3,4.23-.69,5.26-3,3.08-6.5,5.61-9.83,8.35C200.81,81.66,198.28,83.73,195.56,86Z"/><path class="cls-1" d="M92.45,30c-.61,4.05-.92,7.69-1.82,11.19-.35,1.39-2,2.46-3.07,3.68-1.08-1.65-2.94-3.25-3-5-.19-2.87.74-5.82,1.23-8.94-1.12-.23-2.12-.14-2.65-.6-1.47-1.28-2.75-2.79-4.1-4.21,1.57-.87,3.05-2.23,4.72-2.5a109,109,0,0,1,11.85-1c2.76-.13,5.73.07,5.69,3.82,0,3.47-2.71,3.61-5.39,3.44C94.9,29.88,93.92,30,92.45,30Z"/><path class="cls-1" d="M251.29,206.57c0-1.32-.31-2.49.13-3.16a38.49,38.49,0,0,1,3.6-4.19c1,1.29,2.61,2.43,3,3.9a58.51,58.51,0,0,1,2.56,12.13c.15,2-1.1,5.43-2.47,5.88-3.35,1.1-4.49-1.63-4.59-4.69a30.37,30.37,0,0,0-.47-3.26c-3.91-.08-7.7.08-11.42-.35-1.41-.17-2.67-1.68-4-2.59,1.49-1.26,2.83-3.28,4.51-3.62C245,206,248.06,206.52,251.29,206.57Z"/><path class="cls-1" d="M1.48,22c-5.08-9.21,4-20.77,11.1-22,1.52-.25,3.32,1.2,5,1.87a28.31,28.31,0,0,1-2.8,3.83C12.59,7.92,9.89,9.68,8,12.08c-2.34,3-1.66,5.91.74,9,1.42,1.83,2.54,6.43,1.86,6.89-3.23,2.17-5.33-.77-7.27-3.06A23.76,23.76,0,0,1,1.48,22Z"/><path class="cls-1" d="M227.14,137c4.31-.52,7.75-1.32,11.14-1.16,1.34.07,2.58,2.27,3.87,3.49-1.35,1.16-2.54,2.87-4.11,3.34a30.19,30.19,0,0,1-8.27,1.08c-1.48,0-3-.82-4.48-1.27C225.92,140.59,226.55,138.73,227.14,137Z"/><path class="cls-1" d="M246.5,142.22c-.78-.75-2.29-1.6-2.19-2.22.23-1.55,1.19-3,1.85-4.48,1.05.59,2.7.95,3,1.81.58,1.59.39,3.47.52,5.23Z"/></g></g></svg>