<svg xmlns="http://www.w3.org/2000/svg" viewBox="0 0 559.71 181.87"><defs><style>.cls-1{fill:#fff;}</style></defs><title>donde el viento sopla line</title><g id="Capa_2" data-name="Capa 2"><g id="Capa_6" data-name="Capa 6"><path class="cls-1" d="M167,146.09c2.89-2.42,5.54-4.91,8.5-6.94,1.11-.75,3.52-1.06,4.35-.38a5.37,5.37,0,0,1,1.64,4.52c-2.47,8.76-5.27,17.44-8,26.12-.79,2.51-2.16,4.08-5.16,3-3.49-1.24-2.14-3.58-1.34-5.69,1.58-4.18,3.31-8.3,5.14-12.85-2.71,1-5.14,2.79-7,2.31-2-.52-3.46-3.15-5.38-5.07-.65,2.07-1.39,4.29-2,6.54s-1,5-2.14,7.11c-.8,1.43-2.83,2.17-4.31,3.23-.56-1.54-1.88-3.28-1.55-4.58,2.23-8.66,4.6-17.3,7.4-25.79,1.21-3.66,4.57-3.83,6.61-.4C165.29,139.85,165.91,143,167,146.09Z"/><path class="cls-1" d="M559.71,16.38c-4,6.26-7.82,12.63-12.09,18.69-.71,1-3.31.68-5,1-.24-1.62-.49-3.24-.72-4.87,0-.13.17-.28.23-.43q.93-2.68,1.84-5.37c-1.62,1.19-3.3,2.31-4.83,3.62-.73.62-1,1.77-1.78,2.35s-1.91,1.05-2.53.77a2.71,2.71,0,0,1-1-2.4c1-3.93,4.69-7.2,2.76-11.9-.11-.29,1.59-1.87,1.9-1.72,4.16,2,5.84-1.73,8.38-3.43A46.7,46.7,0,0,1,553,8.6c1.65-.76,3.68-.73,5.54-1,.37,2.18.81,4.35,1.07,6.54a5,5,0,0,1-.55,1.89Z"/><path class="cls-1" d="M394.71,106.65c1.48,3.66,3.65,6.76,3.83,10A142.58,142.58,0,0,1,397.8,137c-.12,1.33-2.37,2.46-3.64,3.67-1.09-1.39-2.65-2.64-3.13-4.21s.09-3.57.21-5.48c-4-1.33-3.34,1.57-3.87,3.67a53.87,53.87,0,0,1-2.45,6.39c-.79-2.24-1.56-4.5-2.4-6.73-.65-1.69-1.78-3.29-2-5a8.11,8.11,0,0,1,1.08-4.58c.86-1.53,2.65-2.54,3.44-4.09C387.41,116,388.43,110.5,394.71,106.65Z"/><path class="cls-1" d="M448,104.8c.31,1.58.5,3.2.93,4.75.63,2.27,4.67,3.87,1.63,6.59-.41.37-3.71-2.67-5.79-3.93s-5.47-1.93-6.55-3.82c-1-1.74.75-4.86.44-7.25-.44-3.43-1.94-6.71-2.43-10.14-.28-2,.56-4.08.9-6.12,2.44.6,5.53.48,7.18,2,3.66,3.3,6.69,7.33,9.8,11.2a25.11,25.11,0,0,1,4.28,6.69c.58,1.57-.32,3.67-.55,5.53-1.81-.61-3.83-.91-5.35-1.94-1.25-.85-1.91-2.57-2.83-3.91Z"/><path class="cls-1" d="M27.35,56c-2,.29-3.56,1-4.85.6-1.64-.48-3-1.81-4.54-2.78,1.11-1.23,2-3.09,3.36-3.57a110.82,110.82,0,0,1,13.45-3.66c1.38-.29,4.07.21,4.3.94a7.74,7.74,0,0,1-.43,5.44c-1.34,2.52-3.42,4.64-5.19,6.93l.9,1.38c3.51-1.16,7-2.33,10.52-3.47,1.71-.56,3.48-1.55,5.16-1.45a5,5,0,0,1,3.61,2.47c.42.95-.4,3.49-1.23,3.79-5.88,2.13-11.82,5-17.88,5.43C26.53,68.53,25.18,65.59,27.35,56Z"/><path class="cls-1" d="M185.59,157.31c1.2-3.8,2.35-7.61,3.61-11.39,1.72-5.14,4.07-6.58,9.39-5.5a28.3,28.3,0,0,1,6.08,2.12c6.16,2.81,6.63,7.17,1,11.09a35.3,35.3,0,0,1-9,4.2,9.54,9.54,0,0,0-7,8c-.31,1.79-.45,3.82-1.41,5.24-1.09,1.61-3,2.67-4.57,4-.56-2-1.6-3.92-1.54-5.86s1.16-4.12,1.81-6.18q.88-2.85,1.79-5.7Zm8.16-5,8.37-3.65-.33-1.27-6-1.52Z"/><path class="cls-1" d="M349.71,134.24c-2.4,2.41-4.48,5.33-7.27,7.13-5.59,3.6-8,8.11-7.08,14.82.37,2.66,1.7,7.39-3.34,7.18-4.55-.19-2.74-4.48-2.77-7.15-.06-7.13.1-14.27.23-21.41.13-6.69,2-8.57,8.74-8.6a32.75,32.75,0,0,1,6.93.54C348.86,127.52,350.68,129.67,349.71,134.24Zm-14,4.48L342.8,133c-.16-.32-.31-.64-.47-.95l-6.75.23C335.64,134.51,335.68,136.1,335.74,138.72Z"/><path class="cls-1" d="M14.34,43.23c-5.8-1.91-7.54-8.15-3.54-12.74,4.15-4.78,15.61-7.91,21.65-5.92,5.1,1.69,6.51,5.46,3.77,10C31.79,42,22.12,45.79,14.34,43.23Zm.57-8.8c7,4.1,13.57,1.83,15.93-5.31Z"/><path class="cls-1" d="M310.71,163.9a12.4,12.4,0,0,1-3-2.32c-4.15-5.14-4-18.39.1-23.6,2.69-3.43,6.15-3.79,9.37-1,6.59,5.73,8.12,17.26,3.27,24.53C318.44,164.49,315.36,165.45,310.71,163.9Zm1.44-5.71,1.74-.06c4-6.74,3.48-12.06-2.74-17.26C311.52,147.39,311.84,152.79,312.15,158.19Z"/><path class="cls-1" d="M152.74,138l-8.86-1.27c-.58,1.25-1.24,2.67-1.47,3.18l4.68,6.72-8.91,1.17-3.27,5.56c1.42.82,3,1.2,3.53,2.16.82,1.34.93,3.12,1.34,4.71-1.29.28-2.69,1-3.84.73a26,26,0,0,1-5.88-2.52c-3.36-1.8-3.51-4.46-1.76-7.55s4.87-5.63,3.24-9.85c-.16-.43.71-1.79,1.2-1.84,4.82-.53,4.67-4,5.06-7.55.1-.94,2.14-2.54,3-2.36a45,45,0,0,1,9.88,3.28c1.37.66,2.08,2.67,3.09,4.07Z"/><path class="cls-1" d="M76.81,91.81,73.7,94.64l2.32,7.6-7.9-1.63c0-.43-.06-.85-.08-1.28l-6.37,4.76c1,1.16,2.24,1.9,2.44,2.85a21.76,21.76,0,0,1-.06,4.9c-1.44-.12-3.12.19-4.25-.46A17.06,17.06,0,0,1,56,107.59c-2.91-3.31-2.47-6.16,1.11-8.76,2.67-2,6.28-3.15,6.49-7.41,0-.53,1.59-1.57,2.16-1.4,4.09,1.18,5.73-1.45,6.86-4.43s2.79-2.85,4.84-1.12c2.27,1.92,4.77,3.69,6.6,6,1,1.22.75,3.41,1.06,5.16a17.55,17.55,0,0,1-4.41-.77C79.35,94.27,78.33,93.05,76.81,91.81Z"/><path class="cls-1" d="M243.58,149.81c.07,1.55.13,3,.16,3.71l7.13,3.79-7.87,5c-.12,1.3-.34,3.72-.58,6.5,1.65.07,3.22-.32,4.11.29,1.32.89,2.15,2.48,3.19,3.78-1.07.81-2,2.11-3.22,2.33a27.2,27.2,0,0,1-6.38.06c-3.8-.23-5.2-2.54-4.76-6.08s1.86-7.06-1-10.32a2.67,2.67,0,0,1,.59-2.49c3.75-2.26,2.35-5.15,1.44-8.2-.34-1.11.15-3.57.47-3.61a114.4,114.4,0,0,1,13.2-.85c.83,0,1.66,1.67,3.35,3.52Z"/><path class="cls-1" d="M46.91,85.93a39.11,39.11,0,0,1-4.5-2.63c-4.13-3.22-4-6,.38-8.84,1-.64,2-1.2,3-1.75C57.68,66.37,59.67,67,66.2,78.79c2.69,4.88.87,8.73-4.69,8.73C56.6,87.52,51.68,86.49,46.91,85.93Zm13.19-5.2-4.28-5.17.24,1.53-6.5,1.62c.08.31.17.63.25,1Z"/><path class="cls-1" d="M17.16,20.47c-5.12-3-10.09-5.2-14.09-8.54C-1.9,7.77-.65,3.84,5.5,2.2c.8-.21,1.61-.4,2.42-.59,12.63-2.89,12.82-3,17.1,8.89.94,2.6.87,6.5-.51,8.66C23.57,20.64,19.54,20.13,17.16,20.47Zm1.45-7.4C17.77,6.22,17.29,6,9.85,9Z"/><path class="cls-1" d="M227.18,159.72c.28.19,1.39.59,1.82,1.37a20.42,20.42,0,0,1,1.3,4c-1.43.37-3.06,1.36-4.26,1-2.77-.88-5.33-2.42-8.55-4-.07,2,.14,3.48-.25,4.78a18.21,18.21,0,0,1-2.09,3.7c-1.34-1-3.75-1.9-3.84-3-.4-5.26-.19-10.57-.16-15.86,0-.47.21-1.32.44-1.35,3.65-.63,7.38-1.79,11-1.47,2.36.21,5.1,2.17,6.53,4.17C229.82,154.13,228.06,157,227.18,159.72Z"/><path class="cls-1" d="M291.46,158.63c6.42.27,7.93,3.87,7.26,8.56a51.71,51.71,0,0,1-2.92,11.51c-.55,1.42-2.91,2.13-4.44,3.17-.9-1.83-2.69-3.76-2.49-5.46.4-3.38,1.9-6.63,2.91-9.84-8-4.6-9.21-12-3.11-18.15.91-.92,3.29-1.62,4.11-1.08,1,.64,1.59,2.82,1.36,4.17C293.77,153.71,292.59,155.77,291.46,158.63Z"/><path class="cls-1" d="M112.65,124.61c3.8,5.66,3.55,8.52-1.24,12.52a46.57,46.57,0,0,1-9.13,6c-1.29.63-3.35-.32-5.06-.55.31-1.87.08-4.12,1.07-5.51s3.28-2.16,4.94-3.26c1.5-1,2.92-2.08,4.29-3.07-3.27-8.23.81-14.63,9.59-15.32,1.27-.1,3.77,1.25,3.75,1.85a6.56,6.56,0,0,1-2,4.41C117.23,123,115,123.54,112.65,124.61Z"/><path class="cls-1" d="M363.7,147.47c1.56.05,3-.32,3.8.23a19.86,19.86,0,0,1,3.35,3.6c-1.15.92-2.17,2.28-3.48,2.65a19.54,19.54,0,0,1-5.93.4c-3.67-.16-5.66-2.3-5.12-5.88,1.26-8.37,2.75-16.73,4.44-25,.24-1.22,2.06-2.12,3.16-3.17,1.06,1.66,3.13,3.39,3,5-.43,5.45-1.64,10.83-2.5,16.24C364.11,143.4,364,145.36,363.7,147.47Z"/><path class="cls-1" d="M125.06,133.37c3.18,1.72,2.91,3.86,1.14,6.2s-3.49,4.78-5.45,7c-.87,1-2.27,1.5-3.43,2.23-.9-1.5-2.92-3.67-2.5-4.38a100.43,100.43,0,0,1,8-10.87C123.17,133.11,124.38,133.4,125.06,133.37Z"/><path class="cls-1" d="M133.33,132.09c-2.05.86-3.74,1.93-4,1.63a23.31,23.31,0,0,1-2.8-4.27c1-.59,2.53-1.93,3-1.64C130.79,128.65,131.68,130.15,133.33,132.09Z"/></g></g></svg>