
<svg xmlns="http://www.w3.org/2000/svg" viewBox="0 0 145.31 144.37"><defs><style>.cls-1{fill:#00252c;}</style></defs><title>Tenis</title><g id="Capa_2" data-name="Capa 2"><g id="Capa_7" data-name="Capa 7"><path class="cls-1" d="M0,71.81C.31,31.51,33-.32,73.7,0c39.27.32,71.84,33.34,71.6,72.59-.23,39.85-33.32,72.17-73.47,71.78C31.91,144-.3,111.44,0,71.81Zm113.3-52.4C88.1-.52,52.88,2.06,32.08,19.43c.35.49.68,1,1.06,1.48,9.08,11,13,23.74,13.09,37.87.05,10.72-2.8,20.75-6.54,30.65-3.39,8.93-5.23,18.16-2.51,27.56,2.34,8.06,5.83,15.77,14.64,18.7,11.37,3.78,23,3.95,34.86,2.07,10.92-1.73,17-8.15,20.61-17.84a32.11,32.11,0,0,0,1.48-18.47,168.48,168.48,0,0,0-5.13-17.23c-4.2-12.42-6.07-25-3.48-38A57.15,57.15,0,0,1,113.3,19.41ZM34.79,126.72c-5.17-11-5.29-22.15-2-33.45,1.4-4.8,3.2-9.48,4.76-14.24,4-12.22,4.58-24.57,1-37a43.41,43.41,0,0,0-10.79-19C-3.15,48.09-3,102.1,34.79,126.72Zm75.84.26c16.2-11.5,26.21-26.8,28.62-46.58,2.78-22.7-4.89-41.63-21.44-57.48-5.42,5.31-8.57,11.49-10.75,18.2-4.79,14.73-3,29.2,2.46,43.31S117.56,112.52,110.63,127Z"/></g></g></svg>
